<svg xmlns="http://www.w3.org/2000/svg" width="229.49" height="189.79" viewBox="0 0 229.49 189.79"><defs><style>.a{fill:none;stroke:#fff;stroke-miterlimit:10;stroke-width:0.25px;}</style></defs><title>develop</title><path class="a" d="M40.63,121.66c-3.6,19.3-2,43.6,12.4,45.9,10.1,1.6,28.8-21.7,31.2-46,3-29.6-4.3-41.3-13.9-42.5C62.13,78,45.63,95.06,40.63,121.66Z"/><path class="a" d="M57.72,85.86c15.6,28-5.1,76-13.4,76"/><path class="a" d="M53,182.86c0,3.8.8,6.8,1.8,6.8"/><path class="a" d="M57.33,182.86c-0.6,3-1.1,5.6-2.6,6.8"/><path class="a" d="M58.92,182.36c0,3,1.4,5.4,3.1,5.4"/><path class="a" d="M63,180.86c0,3.7-.2,5.8-1,6.8"/><path class="a" d="M57.33,182.86a1,1,0,0,1,1.6-.5"/><path class="a" d="M64.92,180.06c0.6,2.6,1.6,4.4,3.4,4.6"/><path class="a" d="M69.22,177.66c0.2,2.9,0,6.6-.9,7.1"/><path class="a" d="M63,180.86a2.12,2.12,0,0,1,1.9-.8"/><path class="a" d="M70.83,177c0.7,1.3,1.8,3.3,3.6,3.5"/><path class="a" d="M74.92,173c0,4.2,0,7.3-.5,7.5"/><path class="a" d="M69.22,177.66a1.28,1.28,0,0,1,1.7-.7"/><path class="a" d="M76.42,172c1.3,1.9,2.5,3,4.5,2.8"/><path class="a" d="M80.63,167.06a52.71,52.71,0,0,1,.2,7.7"/><path class="a" d="M76.42,172a1.74,1.74,0,0,0-1.4,1"/><path class="a" d="M81.72,166.06a5.93,5.93,0,0,0,4.4,2.3"/><path class="a" d="M85.53,160.86a23.15,23.15,0,0,1,.6,7.5"/><path class="a" d="M81.72,166.06a2.13,2.13,0,0,0-1.1,1"/><path class="a" d="M86.63,159.56c0,0.6,3.3,1.9,4.2,1.1"/><path class="a" d="M89.92,154.76c1.9,2.6,1.3,5.3.8,5.8"/><path class="a" d="M86.63,159.56c-0.5-.2-1,0.7-1.1,1.3"/><path class="a" d="M90.63,152.26a7.59,7.59,0,0,0,4.7,0"/><path class="a" d="M93.92,146.46c2.6,3.4,1.9,4.6,1.4,5.7"/><path class="a" d="M90.63,152.16c-0.5,0-1.4,1.3-.6,2.6"/><path class="a" d="M94.13,143.86c2.3-.3,4.8-0.3,5.3-2.3"/><path class="a" d="M96.72,137.66a5.11,5.11,0,0,1,2.6,3.9"/><path class="a" d="M93.92,146.46a1.72,1.72,0,0,1,.2-2.6"/><path class="a" d="M97.13,135c2.2-.2,4.3-1.5,4.7-2.9"/><path class="a" d="M98.72,128.16c3.8,2.4,3.2,3.9,3.2,3.9"/><path class="a" d="M97.13,135a2.83,2.83,0,0,0-.4,2.7"/><path class="a" d="M99.13,126.36a9,9,0,0,0,4.8-4"/><path class="a" d="M100.92,119.46c1.8,0.8,3.4,1.5,3,2.9"/><path class="a" d="M99.13,126.36a1.56,1.56,0,0,0-.4,1.8"/><path class="a" d="M100.42,117.46c1.8-2.4,4.6-3.9,4.8-6"/><path class="a" d="M101.33,110.46c1.3,0.4,4,.6,4,1.1"/><path class="a" d="M100.42,117.46a1.22,1.22,0,0,0,.5,2"/><path class="a" d="M100.53,108a17,17,0,0,1,4-3.2"/><path class="a" d="M100.22,101.46a16.69,16.69,0,0,0,4.1.3"/><path class="a" d="M104.53,101.66"/><path class="a" d="M100.53,110.46"/><path class="a" d="M99.72,99.26c1.6-2.1,4.5-3.5,5.6-4.4"/><path class="a" d="M99,93.46a14.48,14.48,0,0,1,6.1-.5"/><path class="a" d="M105,93a1.18,1.18,0,0,1,.2,1.9"/><path class="a" d="M99,93.46c-0.6,0-.9-1.3-0.7-1.7"/><path class="a" d="M98.33,91.76c2-2.8,3.3-6.1,2.8-7"/><path class="a" d="M101.13,84.76c-0.8-.9-3.9,2.1-4.5,1.5"/><path class="a" d="M98.33,77.66c-0.3,3.8-3.4,6.5-1.7,8.6"/><path class="a" d="M98.33,77.66c-1.5,0-3.2,0-4.7,2.9"/><path class="a" d="M93.63,80.56c-2.6-1.6.8-4.6,0.5-9.3"/><path class="a" d="M94.13,71.26c-3.4,1.4-3.2,4.2-4.8,3.8"/><path class="a" d="M89.33,75.06c-1.8-.9,1.6-6.4.3-8.6"/><path class="a" d="M89.63,66.46c-2.5.8-2.1,4.8-4.5,4.5"/><path class="a" d="M85.13,71c-1.9-.6.8-7.9-1-7.9"/><path class="a" d="M84.13,63.06c-1.5,0-2.4,5.4-4.1,5.2"/><path class="a" d="M80,68.26c-2.5.2,0.8-7.3-1.9-7.3"/><path class="a" d="M78.13,61c-2.1.7-1.5,6.3-3.7,5.9"/><path class="a" d="M74.42,66.86c-2.4,0,.5-6.8-2.6-6.8"/><path class="a" d="M71.83,60.06c-1.2,0-1.1,7.5-3.4,7"/><path class="a" d="M68.42,67.06c-1.8,0-.6-6.4-2.5-6.4"/><path class="a" d="M65.92,60.66c-1.3,0-1.2,7.6-3.1,7.4"/><path class="a" d="M62.83,68.06c-1.8.3-1.5-5.7-3.7-5.3"/><path class="a" d="M59.13,62.76c-1.2.4,0.2,6.9-1.8,7.5"/><path class="a" d="M57.33,70.26c-2.6,1.3-2.9-4.6-4.5-4"/><path class="a" d="M52.83,66.26c-1,.3-0.2,7.1-1.5,7.9"/><path class="a" d="M51.33,74.16c-1.7.2-3.6-3.3-5.3-4.3"/><path class="a" d="M46.13,69.86c-0.3,4.8.6,8.9-.2,9.3"/><path class="a" d="M45.92,79.16c-1.5,1.4-3-1.7-5.3-3"/><path class="a" d="M40.63,76.16"/><path class="a" d="M40.53,86.46c-0.7-.8-2.1-1.5-4.7-1.5"/><path class="a" d="M35.83,85c-1.2,1.5.3,7.9,0.4,7.9"/><path class="a" d="M40.63,76.16c-0.8,2.4.8,7.9-.1,10.3"/><path class="a" d="M36.22,92.86c-0.9,1.4-3-.3-5.4.5"/><path class="a" d="M30.83,93.36c-0.4,1.9.6,6,1.7,6.8"/><path class="a" d="M32.53,100.16a1.88,1.88,0,0,1-1.3,1.8"/><path class="a" d="M31.22,102a8.26,8.26,0,0,0-4.4.8"/><path class="a" d="M26.83,102.76c-0.3,2.6,1.1,4.4,2.2,5.7"/><path class="a" d="M29,108.46a1.77,1.77,0,0,1-.9,2.1"/><path class="a" d="M28.13,110.56a16.16,16.16,0,0,0-4.7,1.6"/><path class="a" d="M23.53,112.16a5.1,5.1,0,0,0,3.2,5.3"/><path class="a" d="M26.63,117.36a2.57,2.57,0,0,1-1.1,2.3"/><path class="a" d="M25.53,119.76c-0.6.3-3.6,1.1-4.8,3.6"/><path class="a" d="M21.42,122.26c-0.2,1.8,1.6,2.9,3.2,4"/><path class="a" d="M24.63,126.16a3.14,3.14,0,0,1-.3,2.5"/><path class="a" d="M24.33,128.66c-1.8.9-3.6,1.5-4.6,4.2"/><path class="a" d="M19.72,132.86c0.3,1.5,1.8,2.2,4.1,2.2"/><path class="a" d="M23.83,135a3.69,3.69,0,0,1-.2,2.4"/><path class="a" d="M23.53,137.46c-1.1,1.1-3.5,3.2-4.2,5.1"/><path class="a" d="M19.42,142.46c0,1.2,1.4,2,4.3,1.7"/><path class="a" d="M23.72,144.16a3.15,3.15,0,0,1,.1,1.9"/><path class="a" d="M23.83,146.06c-1.1,1.2-3.7,4.1-4,6.1"/><path class="a" d="M19.83,152.26c0.9,1.2,4.2.5,4.9,0.3"/><path class="a" d="M24.72,152.56a8.12,8.12,0,0,1,.2,1.7"/><path class="a" d="M24.92,154.26c-0.4,1.1-3.1,2.6-3.1,6.8"/><path class="a" d="M21.83,161.06a11.3,11.3,0,0,0,4.8-1.2"/><path class="a" d="M26.72,159.86c0.7,2-2.4,6.3-2.6,8.3"/><path class="a" d="M24,168.26c2.3,1.5,4-2.7,5-1.8"/><path class="a" d="M29,166.46c1.4,0.7-2.7,7.8-.9,9.1"/><path class="a" d="M28.13,175.56c2.7-1.3,2.5-3.5,4.2-3"/><path class="a" d="M32.33,172.56c1.7,0.3-1.8,7.8-.3,8.3"/><path class="a" d="M32,180.86c2.7-.4,2.5-4.2,4.8-3.7"/><path class="a" d="M36.83,177.26c1.3,0-1.2,6.6.2,7.6"/><path class="a" d="M37,184.86c2.1-.6,2.6-5.3,4.5-4.4"/><path class="a" d="M41.42,180.46c1.5,0,0,6.9,1.3,7.5"/><path class="a" d="M42.72,188c1.3-.2,2-5.9,4-5.3"/><path class="a" d="M46.83,182.66c1.7-.5,0,6.4,1.6,6.7"/><path class="a" d="M48.33,189.36c1.8,0.3,1.4-6.9,4.7-6.5"/><path class="a" d="M100.53,110.46"/><path class="a" d="M100.53,108c-0.4.4-.3,2.3,0.8,2.5"/><path class="a" d="M104.53,104.76c0.3-.6.5-2.4-0.2-3"/><path class="a" d="M99.72,99.26a3.1,3.1,0,0,0,.5,2.2"/><path class="a" d="M89.63,66.46c-0.5-.8-3.2,1.3-5.1,1"/><path class="a" d="M84.13,63.06c-1.3-1.1-3.8.8-4.9,0.5"/><path class="a" d="M78.13,61c-1.8-1.4-3.7.8-4.9,0.5"/><path class="a" d="M71.83,60.06c-0.8-1.9-3,.1-5.9.6"/><path class="a" d="M58.83,63.16c-1.9-1.4-7.3-8.3-8.3-7.7"/><path class="a" d="M50.53,55.46a12.28,12.28,0,0,0-2.2,5"/><path class="a" d="M48.33,60.46c1.3,2.6,3.4,4.1,4.6,5.8"/><path class="a" d="M54.42,58.66c1-1.1,1.5-2.7,2.5-2.7"/><path class="a" d="M56.92,56c2.9,0.2,4.3,3.6,5,4.2"/><path class="a" d="M61,59.06c1.3-1.7,4.2-2.3,6,1.3"/><path class="a" d="M65.92,60.66c-2.5-1.3-6.8-.1-8.9.8"/><path class="a" d="M49.72,62.66c1.3-.1,3.7-0.7,7.3-1.2"/><path class="a" d="M48.33,60.46c-1.4-1.7-2.7-3.5-4.1-3.3"/><path class="a" d="M44.22,57.16c-1.4.8-2.1,4.9-2.2,6.4"/><path class="a" d="M42,63.56c1.6,3.1,4.5,5,5.5,7.6"/><path class="a" d="M42.63,64.56c1.3,0,4.6.1,9.1,0.3"/><path class="a" d="M42,63.56c-2.3-1.6-3.4-3.8-4.6-3.2"/><path class="a" d="M37.42,60.36c-1.2,1.3-1.1,4.5-1.1,6.5"/><path class="a" d="M36.33,66.86c-0.3,2.6,7.4,8.7,6.6,11.2"/><path class="a" d="M36.33,66.86c2.7,1.2,8.3,3.1,10.5,3"/><path class="a" d="M36.53,68c-1.8-1-4.2-4.6-5.3-3.7"/><path class="a" d="M31.33,64.26c-0.8.3-1.2,6.6-.9,8.4"/><path class="a" d="M40.63,76.16c-2.5-2.1-6.7-3.4-10.2-4.8"/><path class="a" d="M25.63,68.86c3.8,1.5,10.9,10.4,14.3,17.1"/><path class="a" d="M25.63,68.86c-1.3,0-1,6.6-1,8.9"/><path class="a" d="M25.63,68.86c5.3,7.1,10.2,10.6,14.3,17.1"/><path class="a" d="M19.42,75.26c10.5,2.5,9.1,13.2,16.8,17.6"/><path class="a" d="M24.63,75.86c3.9,1,7.6,4.5,11.9,5.5"/><path class="a" d="M26.33,79.46c5.5-.1,6.9,4,9.4,5.5"/><path class="a" d="M19.42,75.26c-0.4,2.9-.1,6.2,1,7.5"/><path class="a" d="M20.42,82.76a3.68,3.68,0,0,0-1.6,1.3"/><path class="a" d="M20.42,82.76c2.4,1,5.8,4.5,11.5,6"/><path class="a" d="M19.42,75.26c3.3,3.4,7.8,9.9,10.8,10.7"/><path class="a" d="M14.53,83.26c5.9-.7,16.3,9,19.8,10.1"/><path class="a" d="M27.13,88.86a20.36,20.36,0,0,1,3.6,5.9"/><path class="a" d="M20.33,84.66c3.2,4.6,6.9,10,8.3,13.1"/><path class="a" d="M14.53,83.26c-0.4,2.8.6,5.9,1.6,7"/><path class="a" d="M14.53,83.26c3.6,3.9,11.2,12.4,13.4,13.2"/><path class="a" d="M15.83,90.06c3.7,2.1,12.1,7.7,16,9.2"/><path class="a" d="M31.63,101.76c-4.6-2-17.9-12.9-21.5-9.8"/><path class="a" d="M15.83,89.86a1.83,1.83,0,0,1-1.6,2"/><path class="a" d="M20.53,95c2.4,2.9,5.4,8.1,6.3,7.8"/><path class="a" d="M16.22,92.66c4.2,5.1,7.2,10.7,7.5,12.5"/><path class="a" d="M10.13,92c-1.3,6.8,10.4,11.3,18.1,15.5"/><path class="a" d="M10.13,92c2,3.7,7.3,6.9,11,11.8"/><path class="a" d="M6.43,101.06c5.1-3.5,14.4,6,22,9.3"/><path class="a" d="M9.83,100.36c1.7-.2,2-2.1,2.1-2.9"/><path class="a" d="M6.43,101.06c-1.4,6,13.4,12.5,19.7,16.1"/><path class="a" d="M15.63,102.66c2.3,3.9,6.5,9.5,7.8,9.5"/><path class="a" d="M13.13,101.36c3.3,5.8,7.7,9.8,8.3,13.2"/><path class="a" d="M3.53,111.06c5.2-5.4,13.4,4,22.6,8.1"/><path class="a" d="M3.53,111.06c-0.2,3.5,11.8,10,21.1,15.2"/><path class="a" d="M11.33,110.56c1,2.3,9,11.9,9.9,13.8"/><path class="a" d="M24.42,120.16c-0.6.2-1.9,0.5-5.7,0.5"/><path class="a" d="M8.22,105.76c0,1.5.1,3-.6,3.6"/><path class="a" d="M1.93,120.06c6.1-3.8,10.2,1.3,22.6,8.2"/><path class="a" d="M1.93,120.06c-1.9,3.3,11.5,9.8,17.8,12.8"/><path class="a" d="M0.13,130.76c4-6.7,10.1-1.2,23.6,6.7"/><path class="a" d="M5,124.76c0,1.7-.1,3-0.3,3"/><path class="a" d="M11.92,128.86c0,0.7-.2,1.3-0.5,1.3"/><path class="a" d="M18.33,132.16a1.34,1.34,0,0,1-.9,1.5"/><path class="a" d="M0.13,130.76c1.2,2.2,9.7,7.8,19.5,11.2"/><path class="a" d="M7.43,128.36c3,4.9,6.8,8.3,9.7,12.7"/><path class="a" d="M21.53,139.46c-0.6,0-1.8.9-4.8,0.8"/><path class="a" d="M0.13,140.86c0-2.7,3-4.8,6.7-4.8"/><path class="a" d="M5.33,136.16c4.3,3.1,12.9,7.4,18.5,9.9"/><path class="a" d="M0.13,140.86c4.5,4.5,18.2,9.6,24.8,13.4"/><path class="a" d="M6.83,136c0,3.3,9.3,12.2,12.2,15.2"/><path class="a" d="M20.13,144.36c-0.4.9-3.9,1.9-5.2,2.7"/><path class="a" d="M22.13,148.06c-0.8,0-2.5,1-4.1,2.2"/><path class="a" d="M0.93,149.76a6.32,6.32,0,0,1,4.8-5"/><path class="a" d="M0.93,149.76c5,5.1,17.1,6.4,21,10.2"/><path class="a" d="M2.22,146.86a12.32,12.32,0,0,1,6.3-.7"/><path class="a" d="M7.72,146.16c3.7,4.5,6.3,7.2,9.3,11"/><path class="a" d="M19.83,158.46a4.14,4.14,0,0,1,2.9-1.3"/><path class="a" d="M2.83,157.76c0.5-2.3,1.8-3.4,4.2-4.3"/><path class="a" d="M2.83,157.76c1.5,2.8,6,4.7,14.7,5.6"/><path class="a" d="M9.72,154.56c4.7,5.3,8.2,10.5,15.2,14.2"/><path class="a" d="M21,166.36c1.7,0.5,1.9-1.4,4.2-1.4"/><path class="a" d="M7.83,161.46c-1.1,0-2.5,2.6-2,4.6"/><path class="a" d="M5.83,166.06c1.5,1.6,5.8,3.3,13.8,3.5"/><path class="a" d="M13.22,162.86c4.8,5.4,9,10.1,14.9,12.8"/><path class="a" d="M24.53,173.56c1.8-.4,2.1-1.8,3.7-2"/><path class="a" d="M10.22,168.36c-0.2,1.4-5.4,6.8,12.4,6.8"/><path class="a" d="M13.42,174.36c0,2.8-1.8,5.7,13.5,5.1"/><path class="a" d="M18.42,179.26c0,1.7-.9,4.3,12,3.1"/><path class="a" d="M17.53,169.46c8.2,9.8,17.9,18.4,25.2,18.4"/><path class="a" d="M24,182.66c0,1.4,1.4,2.5,10.6,2.5"/><path class="a" d="M32.33,176.46c-1.1.3-3.4,4.5-5,3.2"/><path class="a" d="M36.92,180.66c-3,2.5-2.4,4-4.1,3.4"/><path class="a" d="M42.22,184c-2.7,1.6-1.6,3.1-3.7,3.1"/><path class="a" d="M42.72,188c0,0.8,2.5,1.4,5.6,1.4"/><path class="a" d="M45.42,189.16a2.1,2.1,0,0,1,2.2-2.4"/><path class="a" d="M48.33,189.36c1.4-.5,3.2.1,6.4,0.3"/><path class="a" d="M51.83,189.36c0-1.2.5-2.2,1.6-2.2"/><path class="a" d="M56,187.76c1.3,0.4,4.8-.1,5.9-0.2"/><path class="a" d="M58.13,188a1.73,1.73,0,0,1,1.6-1.9"/><path class="a" d="M62.83,185.06c1.8,0.5,4.3-.6,5.5-0.3"/><path class="a" d="M65.83,182.86c0,1.2-.4,2.2-0.8,2.2"/><path class="a" d="M69.22,180.86c2.3,0.7,2.3-.4,5.2-0.4"/><path class="a" d="M71.83,178.56v2.3"/><path class="a" d="M74.92,175.66c3.4,0.4,2.6-.8,5.9-0.8"/><path class="a" d="M77.72,173.56c0,1.1-.1,2-0.3,2"/><path class="a" d="M80.83,169a18.89,18.89,0,0,0,5.3-.7"/><path class="a" d="M83.22,167.36c0,0.8.1,1.4,0.3,1.4"/><path class="a" d="M85.63,161.56a13.64,13.64,0,0,0,5.1-.9"/><path class="a" d="M88.13,160.46a1.52,1.52,0,0,1-.1.9"/><path class="a" d="M87.33,69.16a6.9,6.9,0,0,0-2.8-.5"/><path class="a" d="M82.33,65.36c0,0.2-1.4.3-3.2,0.3"/><path class="a" d="M76.83,62.46c-0.8.3-1.5,1.7-3.5,1.7"/><path class="a" d="M70.92,62.06c-0.7.6-2.2,1.9-3.7,1.9"/><path class="a" d="M64.92,62.76c-1.2.6-2.2,2.1-4,2.2"/><path class="a" d="M58.53,65c-1.1.6-2.4,2.8-4.1,3.1"/><path class="a" d="M58.22,69a17.58,17.58,0,0,1-3.1.2"/><path class="a" d="M63.92,67.06a4.54,4.54,0,0,1-2.1.3"/><path class="a" d="M69.72,66.26a5.44,5.44,0,0,1-2,.2"/><path class="a" d="M75.33,66.56a5.39,5.39,0,0,0-1.7-.1"/><path class="a" d="M79.13,67.36c0.2,0.3.8,0.4,1.8,0.4"/><path class="a" d="M89.13,71.76c0,0.8,1.1,1.4,2.4,1.4"/><path class="a" d="M93.33,76.06c0,1.1,1,2,2.6,2"/><path class="a" d="M96.53,83.16c0.9,1.4,1.5,1.4,2.6,2.1"/><path class="a" d="M52.22,68.86c-0.9.6-2.2,2.4-3.9,3"/><path class="a" d="M51.92,72.76c0,0.5-.8,1-1.8,1"/><path class="a" d="M46.13,74.26c-0.6.4-1.5,2.1-3.5,2.1"/><path class="a" d="M44.13,79.06a2.73,2.73,0,0,1,2.2-1.2"/><path class="a" d="M40.53,80.46c-0.5.2-1,1.9-2.7,1.9"/><path class="a" d="M35.33,88c-0.9.3-1.3,1.6-2.9,1.6"/><path class="a" d="M30.92,96.26a4.41,4.41,0,0,1-2.3,1.5"/><path class="a" d="M118.53,83.36c3,10.7-1.8,24.5-4.5,25.9"/><path class="a" d="M113.33,99.36c0,11.7,2.4,18,7.1,18.9,3.2,0.6,12.4-12.1,12.4-23.8s-3.3-18.6-6.5-18.6S113.33,87.66,113.33,99.36Z"/><path class="a" d="M108,116.76c-1.4-.6-4.9,2.9-6.2,2.3"/><path class="a" d="M105.72,111.56c0.3,2.7-7.4,6.4-4,7.5"/><path class="a" d="M105.72,111.56c0-1.6-5.3-.3-4.9-3"/><path class="a" d="M100.83,108.46a13.23,13.23,0,0,1,4.1-3.5"/><path class="a" d="M104.92,105a5,5,0,0,0,0-3.6"/><path class="a" d="M104.92,101.46c0-.2-2.8-0.2-4.4-0.4"/><path class="a" d="M100.53,101.06c-1-2.1.9-2.9,5-5.6"/><path class="a" d="M105.42,95.36c0.8-.6.8-1.5,0.2-2.6"/><path class="a" d="M105.63,92.86c-0.5-.6-1.7-0.7-2.6-2.3"/><path class="a" d="M103.13,90.56a3.18,3.18,0,0,1,.6-2.7"/><path class="a" d="M103.72,87.86c0.3-.4,2.8-0.8,4.1-0.3"/><path class="a" d="M107.83,87.56a7.8,7.8,0,0,0,.8-2.3"/><path class="a" d="M108.63,85.26a17.43,17.43,0,0,1-2.3-5.3"/><path class="a" d="M106.33,80a1.24,1.24,0,0,1,1.2-1.3"/><path class="a" d="M107.53,78.66a9,9,0,0,1,4.2,1.2"/><path class="a" d="M111.63,80a6.07,6.07,0,0,1,1-1.8"/><path class="a" d="M112.63,78.26a23.93,23.93,0,0,1-1-7"/><path class="a" d="M111.63,71.26a1.26,1.26,0,0,1,1.7-.8"/><path class="a" d="M113.33,70.46a9.54,9.54,0,0,1,2.8,3.6"/><path class="a" d="M116.13,74.06a1.2,1.2,0,0,1,1.3-1"/><path class="a" d="M117.42,73.16a47.33,47.33,0,0,1,.4-6.7"/><path class="a" d="M117.83,66.46a1.54,1.54,0,0,1,1.7-1.1"/><path class="a" d="M119.42,65.36a17,17,0,0,1,1.8,4.4"/><path class="a" d="M121.22,69.76A2.34,2.34,0,0,0,123,69"/><path class="a" d="M123,69a21.16,21.16,0,0,1,1.7-6.6"/><path class="a" d="M124.72,62.36a1.26,1.26,0,0,1,1.1-.4"/><path class="a" d="M125.83,61.86c1.1,2.2.2,6.4,1.1,6.5"/><path class="a" d="M126.92,68.36c2.5,1.3,2.1-6,4.6-6"/><path class="a" d="M131.53,62.36c1.3,0.3-.4,7.5,1.3,7.5"/><path class="a" d="M132.83,69.86c1.2,0.2,2.1-4.8,4.7-4.8"/><path class="a" d="M137.53,65.06c0.9,4.3-2.5,6.6-.4,9"/><path class="a" d="M137.13,74.06c1.1-1.1,2.2-3.6,5-3.6"/><path class="a" d="M142.13,70.46c0,3.8-3.3,5.9-2.3,8.8"/><path class="a" d="M139.82,79.26c0.4,1.2,2.7-2.5,4.2-.8"/><path class="a" d="M144,78.46c1.5,2.4-1.5,5.2-2.9,6.4"/><path class="a" d="M141.13,84.86a7.49,7.49,0,0,0,.2,2.1"/><path class="a" d="M141.32,87c1.6,0.3,3,.6,4.2.8"/><path class="a" d="M145.53,87.76a2.8,2.8,0,0,1,0,1.9"/><path class="a" d="M145.53,89.66c-0.7,1-3.3,2.7-4.4,3.5"/><path class="a" d="M141.13,93.16a6.11,6.11,0,0,0,0,2.7"/><path class="a" d="M141.13,95.86c0.7,0.3,2.2.8,3.5,1.2"/><path class="a" d="M144.63,97.06a3.85,3.85,0,0,1-.3,2.7"/><path class="a" d="M144.32,99.76c-0.5.8-2,1.7-4.5,1.7"/><path class="a" d="M139.82,101.46a2.26,2.26,0,0,0-.6,2.6"/><path class="a" d="M139.23,104.06c2.1,1.9,2.5,2.4,2.1,6.2"/><path class="a" d="M141.32,110.26a7.23,7.23,0,0,1-4.5-.3"/><path class="a" d="M136.83,110a1.52,1.52,0,0,0-1.1,1.4"/><path class="a" d="M135.72,111.36c1.4,3.2,1.7,5.9,1.1,7.5"/><path class="a" d="M136.83,118.86c-2,.1-2.6-0.8-4.1-2.1"/><path class="a" d="M132.83,116.76c-1,.4-1.7.6-1.6,1.7"/><path class="a" d="M131.22,118.46c1,4.2.5,7.3-.5,7.3"/><path class="a" d="M130.72,125.76c-2.4-.4-2.7-4.4-3.4-4.2"/><path class="a" d="M127.33,121.56c-3.6.8-.4,7.4-3,8.5"/><path class="a" d="M124.33,130.06c-3.1.8,0-5.8-3.4-5.5"/><path class="a" d="M120.92,124.56c-1.3,0-1.1,6.6-3.4,6.8"/><path class="a" d="M117.53,131.36c-2,.4.4-6.4-1.6-6.7"/><path class="a" d="M115.92,124.66c-1.9-.3-2.3,6.3-4.7,5.6"/><path class="a" d="M111.22,130.26c-1.9-.5,2.2-7.7,0-8.2"/><path class="a" d="M111.22,122.06c-1.4-.6-3.2,4.3-4.9,3.8"/><path class="a" d="M106.33,125.86c-2.3-.4,2.9-7.9,1.7-9.1"/><path class="a" d="M102.63,124.16c0.4,0.9,1.6,1.5,3.7,1.7"/><path class="a" d="M98.83,126.66c3.4,1.3,11.7,4.2,18.7,4.7"/><path class="a" d="M119,129.76a6.3,6.3,0,0,0,4.2.2"/><path class="a" d="M125.53,126.06a13.47,13.47,0,0,0,4.7-.5"/><path class="a" d="M131.33,119.16a30.45,30.45,0,0,0,4.8-.3"/><path class="a" d="M141.23,70.56a7.58,7.58,0,0,0-4.4-.2"/><path class="a" d="M137,65.16c0-.2-2.2-0.3-5-0.3"/><path class="a" d="M130.92,62.46c-1-.4-2.3-0.6-5.2-0.6"/><path class="a" d="M125.83,61.86c-1.1-.4-8.9-3.6-16.6-4.5"/><path class="a" d="M124.72,62.36c-2-.4-7.8-2.3-15.5-4.9"/><path class="a" d="M119.42,65.36c-0.3-.9-7.8-4.5-15.6-7.1"/><path class="a" d="M117.83,66.46c-0.1-.8-7.3-4.9-15-7.5"/><path class="a" d="M113.33,70.46c-3.6-2.1-10.5-5.8-16-8.3"/><path class="a" d="M111.63,71.26c-3.6-2.1-9.7-5.5-15.2-8.1"/><path class="a" d="M107.83,59.66a7.44,7.44,0,0,1,1.4-2.3"/><path class="a" d="M101.53,64.16c0-3.3,1.1-5.9,2.4-5.9"/><path class="a" d="M107.53,78.66c-6-4.2-10.3-7.1-16.6-10.8"/><path class="a" d="M106.33,80c-2.6-1.7-6.6-4.3-12.3-7.4"/><path class="a" d="M93,71.76c-1.3-.8-2.2-1.2-3.3-2"/><path class="a" d="M90.92,67.86a8.46,8.46,0,0,0-1.5,2.6"/><path class="a" d="M96.13,71c0-4.8-.5-9,1.2-8.8"/><path class="a" d="M112.42,77.66c-2.8-1.2-11.8-6.2-16.3-8.7"/><path class="a" d="M98.13,79.06c2.7,1.7,7.6,4.6,10.6,6.2"/><path class="a" d="M97.22,81.46c2.9,1.7,8.7,4.8,10.6,6.1"/><path class="a" d="M101,86.66q1.5,0.6,2.7,1.2"/><path class="a" d="M100.33,88.36a4.3,4.3,0,0,0,2.7.8"/><path class="a" d="M99.53,89.86c0.7,0.7,3,1.3,4.1,1.5"/><path class="a" d="M148.53,90.16c-1.4,1.3-3.9,3.3-4.2,5.8"/><path class="a" d="M144.32,95.86s-0.7,2.5,4.1.8"/><path class="a" d="M148.42,96.66c1.5,0.2-.1,3.5-1.5,4.9"/><path class="a" d="M146.92,101.56c-0.9,1-1.1,3.3-.6,3.3"/><path class="a" d="M146.32,104.86c1.9,0.7,2.9-.7,4.2-0.2"/><path class="a" d="M150.53,104.66c1.6,1.1.3,1.8-1.4,4.9"/><path class="a" d="M149.13,109.56c-0.5,1.1-1,2.4-.6,3.3"/><path class="a" d="M148.53,112.86c1.7,1.4,3.3-2.4,5.2-1.5"/><path class="a" d="M153.73,111.36c1.6,1.2-2.6,4.4-1.4,8.1"/><path class="a" d="M152.32,119.46c1.4,2.1,2.9-3.5,5.2-2.4"/><path class="a" d="M157.53,117.06c1.6,1.3-2.6,6.4-.9,8.2"/><path class="a" d="M156.63,125.26c2.6,0.5,2.2-4.3,4.9-3.9"/><path class="a" d="M161.53,121.36c1.9,0.5-2,6.3.2,7.8"/><path class="a" d="M161.73,129.16c1.9,0.9,2-5,4.7-4.3"/><path class="a" d="M166.42,124.86c1.8,0.5-.9,6.4.7,7"/><path class="a" d="M167.13,131.86c2.2,0.9,1.7-5.4,4.8-5.2"/><path class="a" d="M171.92,126.66c1.8,0.1-.4,6.2,1.3,6.7"/><path class="a" d="M173.13,133.36c2.8,0,1.2-6.5,4.3-6"/><path class="a" d="M177.42,127.36c1.9,0.2,0,5.9,2,5.8"/><path class="a" d="M179.42,133.16c2.6-.3.9-6.1,3.9-6.4"/><path class="a" d="M183.32,126.76c2.1,0-.4,3.6,2.8,4.8"/><path class="a" d="M186.13,131.56c2.6-1.2.4-6.9,3.3-7.3"/><path class="a" d="M189.32,124.26c2.6-.3.7,4.4,2.7,4.1"/><path class="a" d="M192,128.36c3.5-.2.3-6.9,3.2-7.6"/><path class="a" d="M195.23,120.76c1.3-.3,1.2,3.1,3.8,2.7"/><path class="a" d="M198.92,123.46c0.5-.5.5-6.5,0.8-6.8"/><path class="a" d="M199.73,116.66a6.45,6.45,0,0,1,1.6-1.1"/><path class="a" d="M201.32,115.56c1.1,0,1.7,2.9,3.7,2.9"/><path class="a" d="M205,118.46c1.4-.8,0-7.1.1-7.3"/><path class="a" d="M205.13,111.16a3.12,3.12,0,0,1,1.5-1.5"/><path class="a" d="M206.63,109.66c1.3,0.2,1.3,2.1,3.8,1.9"/><path class="a" d="M210.13,104.56c-0.1,1.8,2.2,5.1.3,7"/><path class="a" d="M210.13,104.56c0.2-1.7,1-2.2,2-1.7"/><path class="a" d="M212.13,102.86c0.2,0.1,2.4,1.7,3.7.2"/><path class="a" d="M215.82,103.06c0.7-1.9-1.3-3.9-.9-6.7"/><path class="a" d="M214.92,96.36c0.1-.7.3-1.3,1.1-1.3"/><path class="a" d="M216,95.06c3.7,0.7,4.4-.6,4.6-1.3"/><path class="a" d="M220.63,93.76c0.7-2.2-2.6-3.6-2.1-5.7"/><path class="a" d="M218.53,88.06c1.1-3.3,4.8-.9,5.8-3.4"/><path class="a" d="M224.32,84.66c0.6-2.7-2.7-2.3-2.7-5.1"/><path class="a" d="M221.63,79.56c0.2-3.6,3.1-1.1,5.2-4.5"/><path class="a" d="M226.82,75.06c0.8-2.1-3.7-2-3.3-4.8"/><path class="a" d="M223.53,70.26c0.1-2.3,4.5-2.9,4.9-4.7"/><path class="a" d="M228.42,65.56c0.2-2.7-3.5-.5-3.7-4"/><path class="a" d="M224.73,61.56c-0.1-2.8,2.8-1.2,4.4-5.6"/><path class="a" d="M229.13,56c0.8-2.4-3.3-1.7-3.5-2.2"/><path class="a" d="M225.63,53.76c-1.3-3.1,3.6-5.3,3.7-6.9"/><path class="a" d="M229.32,46.86c0.5-2.8-4.4-.8-4.6-1.6"/><path class="a" d="M224.73,45.26c-1-2.6,4.2-6.7,3.5-7.9"/><path class="a" d="M223.53,37.66c-2.3-.8,2.9-6.8,2.5-8.5"/><path class="a" d="M226,29.16c-0.7-1.8-4.4,2.3-5.2,1.1"/><path class="a" d="M220.82,30.26c-1.3-1.4,2.9-7.1,1.9-8.4"/><path class="a" d="M222.73,21.86c-0.6-1.1-4,2.9-5.5,1.6"/><path class="a" d="M217.23,23.46c-1-.7,2.8-7.1,1.4-7.7"/><path class="a" d="M218.63,15.76c-1.6-1-3.9,4.1-5,3.4"/><path class="a" d="M213.63,19.16c-1.6-.9,1.7-7.8-0.3-8.4"/><path class="a" d="M213.23,16.86a4.59,4.59,0,0,0,2.2,1.1"/><path class="a" d="M213.32,10.76c-2-.4-2.7,5.1-4.5,4.5"/><path class="a" d="M208.82,15.26c-1.4-.3.9-7.6-1-8"/><path class="a" d="M208.42,12.16a13.73,13.73,0,0,1,2.8.5"/><path class="a" d="M207.82,7.26c-1.7-.5-2.1,5.6-4.1,5.3"/><path class="a" d="M203.73,12.56c-2,0,.7-6.9-1.6-7.3"/><path class="a" d="M206.23,8.86a5.64,5.64,0,0,1-3.2,1.3"/><path class="a" d="M207.82,7.26c-2-.5-2.7.8-4.8,0.8"/><path class="a" d="M202.13,5.26c-1.7-.4-1.9,6.1-4.1,6"/><path class="a" d="M198,11.26c-2,0,.6-6.4-2.1-6.7"/><path class="a" d="M200.53,7.16a6.84,6.84,0,0,1-3.4,1.4"/><path class="a" d="M202.13,5.26c-1.8-.9-2.9-0.1-4.9.6"/><path class="a" d="M195.92,4.56c-1.6-.2-1.4,7.1-3.7,7.1"/><path class="a" d="M192.23,11.66c-1.9-.2-0.7-6.4-2.8-6"/><path class="a" d="M189.42,5.66c-1.5.1-1.1,7.5-3,7.2"/><path class="a" d="M186.42,12.86c-1.4.2-1.2-4.9-3.8-4.8"/><path class="a" d="M195.92,4.56c-1.1-.6-3.6-1.1-6.5,1.1"/><path class="a" d="M182.63,8.06c-1.3.6-.2,7.7-2.4,7.9"/><path class="a" d="M194.63,6.66a17.55,17.55,0,0,1-3.7,1.9"/><path class="a" d="M188.23,8.06c-0.7-.1-2.6,1.9-3.5,1.9"/><path class="a" d="M180.23,16c-1.4.2-1.5-4.3-3.5-3.9"/><path class="a" d="M181.92,10c-0.7.6-1.9,2.4-3.7,2.9"/><path class="a" d="M182.63,8.06c-5.2-3.7-5.4-8.2-8.6-7.8"/><path class="a" d="M174,0.26c-1.1.4-1.7,3.4-2.2,5.2"/><path class="a" d="M178,3.26c2.2-3.7,2.1-5.1,7.8,1.3"/><path class="a" d="M185.13,3.86c0.2-3.6,3-2.1,6,.8"/><path class="a" d="M180.53,6.26c1.1-.7,6.9-3.1,9.3-0.9"/><path class="a" d="M176.73,12.06c-1.5.9,0.3,6.7-1.7,7.6"/><path class="a" d="M175,19.66c-2.5.9-2.6-3.7-4.6-2.5"/><path class="a" d="M176.73,12.06c-2.6-2.8-7.2-10.9-9.2-10.3"/><path class="a" d="M180.53,6.26c-1.3-.2-6.3,1-7.6.7"/><path class="a" d="M176,13.76c-1,.3-2.8,3.2-4.2,3.5"/><path class="a" d="M174.73,9.46c0,0.1-3.7.2-8.3,0.2"/><path class="a" d="M172.32,17.06c-3.7-4.2-9.3-12.8-11.4-12.2"/><path class="a" d="M167.53,1.76c-1,.1-2,4.5-2,6.8"/><path class="a" d="M170.42,17.16c-1.5.9,0.5,7.5-1.5,8.4"/><path class="a" d="M168.92,25.56c-1.2-1.8-12.2-17.9-14.3-16.3"/><path class="a" d="M168.92,25.56c-0.8.4-2.3-3.1-4.1-2.3"/><path class="a" d="M164.82,23.26c-1.5,1.1.9,7.9-1,8.6"/><path class="a" d="M169.82,19.16c-0.7.2-2.1,2.5-3.4,2.8"/><path class="a" d="M159,12.36c4,0,9.8,2.9,11.9,3"/><path class="a" d="M160.92,4.86c-1.4.8-.9,6.4-1.9,7.5"/><path class="a" d="M163.82,31.86c-0.8.4-3-2.2-4.5-1.2"/><path class="a" d="M159.32,30.66c-1.1,1.7,1.5,6.4.7,7.4"/><path class="a" d="M163.82,31.86c-1.1-2.8-12.7-20.1-15.4-17.1"/><path class="a" d="M154.63,9.26c-1.1.7,0,5.6-1.4,7.9"/><path class="a" d="M153.73,16c5.3,2.7,8.6,4.2,12.7,6"/><path class="a" d="M164.32,24.86a5.92,5.92,0,0,1-2.8,3.1"/><path class="a" d="M148.42,14.76c-1.3,1.1-.1,8-0.1,8.6"/><path class="a" d="M148,21c3.9,1.8,9.9,5.4,13.7,7.2"/><path class="a" d="M148.42,14.76c5.6,4.6,11.2,11.8,13.1,13.3"/><path class="a" d="M160,38.06c-0.8,1.9-4.9.1-5.4,1.1"/><path class="a" d="M154.63,39.16c-1.3,3.3,2.9,5.3,1.3,7.1"/><path class="a" d="M143,21.06c6.1-1.5,12.4,14.1,17,17.1"/><path class="a" d="M148.32,23.26c5.4,1.9,10.7,5.8,11,7.3"/><path class="a" d="M159.13,33.06a4.54,4.54,0,0,1-2.2,1.7"/><path class="a" d="M143,21.06c-3.6,9.3,11.8,12.1,17,17.1"/><path class="a" d="M143,21.06c5.6,5.7,11.8,12.2,13.9,13.7"/><path class="a" d="M159,38.86c-5.4-2-17.5-12-21.3-10.2"/><path class="a" d="M155.92,46.26c-1.1,1.8-4.9.2-5.5,2"/><path class="a" d="M150.42,48.26c-0.7,2.4,3.3,4.2,2.4,6.2"/><path class="a" d="M156.23,45c-6.5-4.1-21.2-8.5-18.5-16.3"/><path class="a" d="M137.83,28.66c1.8,2.5,10.6,10.9,12.2,13"/><path class="a" d="M145.13,30.76c2,6.2,5.4,7.3,7,12"/><path class="a" d="M149.13,33.16c3.6,2.9,4.9,7.7,5.6,8.8"/><path class="a" d="M155.32,46.76c-5.6-1.7-16.4-12.2-21.8-9.7"/><path class="a" d="M138.92,34.36a12.82,12.82,0,0,1-.4,3"/><path class="a" d="M152.82,54.46c-0.6,2.1-4.5.7-5.4,3"/><path class="a" d="M147.42,57.46c-0.6,3.3,3.8,3.9,2.9,5.7"/><path class="a" d="M152.82,53.16c-9.2-4.9-21.6-9.7-19.3-16.1"/><path class="a" d="M133.53,37.06c4.5,6.1,9.9,10.1,14.5,13.7"/><path class="a" d="M141.13,38.56c2.2,6.3,6.3,8.9,7.7,12.5"/><path class="a" d="M144.73,40.56c1.1,2.6,5.1,7,5.7,7.7"/><path class="a" d="M148.73,46.26c0-.1,2.1-0.1,4.7-0.3"/><path class="a" d="M152.13,55.26c-5.6-2.9-18-12.3-22.3-9.5"/><path class="a" d="M148.73,60.66c-10.9-5.8-20.6-10.5-18.9-14.9"/><path class="a" d="M129.92,45.76c2.9,5,8.7,9.4,14,12.3"/><path class="a" d="M137.33,46.76c3.7,5.6,5.8,8.5,8.3,12.2"/><path class="a" d="M139.23,47.66c3.1,4.3,5.8,7.9,8.4,9.3"/><path class="a" d="M145.63,55.56c1.7-.1,2.8-0.2,6.4-0.2"/><path class="a" d="M150.32,63.06c-0.4,1.8-3.7,1.2-5.2,4.2"/><path class="a" d="M145.13,67.26c-0.8,1.7,2.6,3.2,3.5,3.4"/><path class="a" d="M148.63,70.66c0.4,3.3-1.4,2.1-5.1,5.5"/><path class="a" d="M143.53,76.16c-0.9,1.7,2,3.1,4.2,3.1"/><path class="a" d="M149.73,64c-5.7-1.8-18.5-14.4-23-8.2"/><path class="a" d="M145.13,68.26c-7-3.1-19.3-9.7-18.4-12.5"/><path class="a" d="M134.72,55.26c2.9,6.2,7.8,8.6,9.9,12.8"/><path class="a" d="M142.53,65.06a28.81,28.81,0,0,0,5.7-.4"/><path class="a" d="M132,50.76c0,2.9-.4,3.4-0.8,3.4"/><path class="a" d="M129.92,59.86a4.48,4.48,0,0,1-.6,2.2"/><path class="a" d="M133.33,62.06a1.26,1.26,0,0,1-1.4.8"/><path class="a" d="M137.63,67c2.9,1.1,7.7,4.4,11,5.3"/><path class="a" d="M141,74.46a18,18,0,0,0,5.1-.2"/><path class="a" d="M147.73,79.26c0,1.5.3,2.1-.4,2.8"/><path class="a" d="M147.32,82.06c-2.3,2.1-3.9,3.1-3.5,4.9"/><path class="a" d="M143.82,87c0.1,0.4,1.9.8,4.3,0.8"/><path class="a" d="M148.13,87.76a6.74,6.74,0,0,1,.4,2.4"/><path class="a" d="M142.32,83.76h3"/><path class="a" d="M147.82,80.66a13.85,13.85,0,0,0-3.4-.2"/><path class="a" d="M141,94.46c1.9-.3,2.2-1.6,4.8-1.6"/><path class="a" d="M144.53,95.06a7.45,7.45,0,0,1-3.5.1"/><path class="a" d="M146.32,104.86a11.76,11.76,0,0,1-5-3.6"/><path class="a" d="M143.63,103.46a5.45,5.45,0,0,1,3.3-1.9"/><path class="a" d="M148.53,112.86c-1.6-.4-3.8-2.2-7.1-4.7"/><path class="a" d="M146,111.56a4.3,4.3,0,0,1,3.1-2"/><path class="a" d="M152.32,119.46c-3.2-.3-7.3-3.9-11.8-9"/><path class="a" d="M149.92,118.66c0-1.3,1-2.2,2.6-2.7"/><path class="a" d="M136.53,113.46c1.2,0,3.6.3,7.3,0.5"/><path class="a" d="M173.13,133.36c-9.4-.3-14.6-2.3-32.3-19.6"/><path class="a" d="M146.63,119.46a38.49,38.49,0,0,1-9.8-.6"/><path class="a" d="M157.23,120.46c-0.8,1.1-2.5,3.9-5.6,3.4"/><path class="a" d="M156.63,125.26a28.84,28.84,0,0,0-4.9-1.4"/><path class="a" d="M161.32,125.66c-1.4.1-1.2,2.3-3.4,3"/><path class="a" d="M137.63,119c-1.7,5.4,6.4,5.4,14.1,4.9"/><path class="a" d="M142.92,123.86c-1.2,4.1,5.9,3.3,12.6,3"/><path class="a" d="M148.82,127.16c-1.1,2.3,4.5,2.1,10.1,2.1"/><path class="a" d="M166.82,128.36c-0.8-.1-1.9,3-3.8,3.1"/><path class="a" d="M172.53,130.16c-1.4.1-1.4,2.9-2.9,3"/><path class="a" d="M178.32,130.76a2.71,2.71,0,0,0-1.4,2.5"/><path class="a" d="M174.13,133c0,0.1,3.8.7,5.3,0.2"/><path class="a" d="M184.32,129.36c0,1-.8,3.1-3.6,2.3"/><path class="a" d="M186.13,131.56c-0.5.3-1.7,0.9-4.4,0.3"/><path class="a" d="M192,128.36a9.52,9.52,0,0,1-4.5.8"/><path class="a" d="M190.82,125.66c0,1.7-.4,2.9-1.4,3.3"/><path class="a" d="M196.82,122.36c0,1.3-.1,2.2-0.1,2.2"/><path class="a" d="M198.92,123.46c-0.6,1-2.2,1.4-5.1,1.4"/><path class="a" d="M205,118.46a15,15,0,0,1-5.5.7"/><path class="a" d="M202.63,116.76c0,1.3-.1,2.3-0.1,2.3"/><path class="a" d="M210.42,111.56c-0.5.6-2.3,0.9-5.1,0.9"/><path class="a" d="M208.13,110.86a3.22,3.22,0,0,1-.2,1.5"/><path class="a" d="M215.82,103.06c-1,1.5-2.6,1.5-5.7,1.5"/><path class="a" d="M223.53,37.66c0.9,0.5,3.9-1.4,4.7-.3"/><path class="a" d="M182.73,30.76c12.1,23.7,1.5,57.8-13.9,74.3"/><path class="a" d="M165,64.86c-3.8,23.8,1.1,45.5,12.3,46.7,7.7,0.8,23.9-11.1,30.4-41.8,6-28-5.4-45.3-12.6-45.4C186.63,24.16,169,40.36,165,64.86Z"/><path class="a" d="M142.82,29.56c0.1-.8.4-2.2,0.4-3"/><path class="a" d="M134.72,45.76a20.77,20.77,0,0,0,.5-3"/><path class="a" d="M5.33,118.76a5.23,5.23,0,0,0,.5-4.2"/><path class="a" d="M19.72,132.86c-4.7-6.7-7-9.1-10.5-13.4"/><path class="a" d="M16,127.86a26.9,26.9,0,0,0,7.7,1.1"/><path class="a" d="M143.53,76.16a18.8,18.8,0,0,0-3.4-.1"/><line class="a" x1="57.83" y1="85.86" x2="80.22" y2="85.96"/><line class="a" x1="58.42" y1="87.16" x2="80.92" y2="87.26"/><line class="a" x1="59.13" y1="84.66" x2="79.33" y2="84.66"/><line class="a" x1="60.53" y1="83.36" x2="78.33" y2="83.46"/><line class="a" x1="61.72" y1="82.36" x2="77.42" y2="82.46"/><line class="a" x1="63.03" y1="81.46" x2="76.33" y2="81.56"/><line class="a" x1="118.72" y1="84.06" x2="131.83" y2="84.16"/><line class="a" x1="118.53" y1="83.36" x2="131.63" y2="83.36"/><line class="a" x1="119.03" y1="82.56" x2="131.42" y2="82.66"/><line class="a" x1="119.53" y1="81.86" x2="131.13" y2="81.86"/><line class="a" x1="120.03" y1="81.16" x2="130.83" y2="81.16"/><line class="a" x1="120.53" y1="80.56" x2="130.72" y2="80.56"/><line class="a" x1="120.92" y1="80.06" x2="130.53" y2="80.06"/><line class="a" x1="121.33" y1="79.46" x2="130.22" y2="79.56"/><line class="a" x1="121.83" y1="78.96" x2="130.03" y2="79.06"/><line class="a" x1="122.42" y1="78.46" x2="129.63" y2="78.46"/><line class="a" x1="122.92" y1="77.96" x2="129.33" y2="77.96"/><line class="a" x1="123.42" y1="77.46" x2="129.03" y2="77.46"/><line class="a" x1="123.83" y1="77.06" x2="128.63" y2="77.06"/><line class="a" x1="124.42" y1="76.66" x2="128.22" y2="76.66"/><line class="a" x1="125.03" y1="76.26" x2="127.72" y2="76.26"/><line class="a" x1="118.92" y1="85.06" x2="132.03" y2="85.06"/><line class="a" x1="119.13" y1="85.96" x2="132.22" y2="86.06"/><line class="a" x1="119.22" y1="86.96" x2="132.33" y2="86.96"/><line class="a" x1="119.33" y1="87.96" x2="132.42" y2="87.96"/><line class="a" x1="119.53" y1="89.16" x2="132.63" y2="89.26"/><line class="a" x1="119.53" y1="90.36" x2="132.63" y2="90.46"/><line class="a" x1="119.53" y1="91.86" x2="132.72" y2="91.86"/><line class="a" x1="119.53" y1="93.36" x2="132.72" y2="93.46"/><line class="a" x1="119.22" y1="94.86" x2="132.83" y2="94.96"/><line class="a" x1="119.13" y1="96.26" x2="132.63" y2="96.36"/><line class="a" x1="118.83" y1="97.66" x2="132.53" y2="97.76"/><line class="a" x1="118.53" y1="99.16" x2="132.33" y2="99.16"/><line class="a" x1="118.33" y1="100.26" x2="132.13" y2="100.36"/><line class="a" x1="117.92" y1="101.46" x2="131.83" y2="101.46"/><line class="a" x1="117.72" y1="102.56" x2="131.53" y2="102.66"/><line class="a" x1="117.33" y1="103.46" x2="131.22" y2="103.46"/><line class="a" x1="117.13" y1="104.26" x2="131.03" y2="104.36"/><line class="a" x1="116.72" y1="105.16" x2="130.72" y2="105.16"/><line class="a" x1="116.42" y1="105.86" x2="130.33" y2="105.96"/><line class="a" x1="116.13" y1="106.66" x2="130.03" y2="106.66"/><line class="a" x1="115.63" y1="107.36" x2="129.72" y2="107.46"/><line class="a" x1="115.22" y1="108.16" x2="129.22" y2="108.16"/><line class="a" x1="114.63" y1="108.76" x2="129.03" y2="108.86"/><line class="a" x1="114.13" y1="109.46" x2="128.63" y2="109.46"/><line class="a" x1="114.33" y1="110.06" x2="128.33" y2="110.16"/><line class="a" x1="114.42" y1="110.76" x2="127.92" y2="110.76"/><line class="a" x1="114.63" y1="111.36" x2="127.63" y2="111.36"/><line class="a" x1="114.83" y1="111.96" x2="127.22" y2="111.96"/><line class="a" x1="114.92" y1="112.46" x2="126.83" y2="112.56"/><line class="a" x1="115.22" y1="113.06" x2="126.53" y2="113.06"/><line class="a" x1="115.42" y1="113.56" x2="126.13" y2="113.56"/><line class="a" x1="115.63" y1="114.16" x2="125.72" y2="114.16"/><line class="a" x1="116.03" y1="114.66" x2="125.22" y2="114.76"/><line class="a" x1="116.22" y1="115.26" x2="124.83" y2="115.26"/><line class="a" x1="116.63" y1="115.76" x2="124.33" y2="115.76"/><line class="a" x1="117.03" y1="116.26" x2="123.83" y2="116.26"/><line class="a" x1="117.72" y1="116.86" x2="123.33" y2="116.86"/><line class="a" x1="118.33" y1="117.36" x2="122.63" y2="117.36"/><line class="a" x1="119.03" y1="117.76" x2="122.03" y2="117.86"/><line class="a" x1="183.23" y1="31.86" x2="204.23" y2="31.86"/><line class="a" x1="183.63" y1="32.66" x2="204.63" y2="32.66"/><line class="a" x1="184.03" y1="33.56" x2="205.03" y2="33.56"/><line class="a" x1="184.32" y1="34.56" x2="205.53" y2="34.56"/><line class="a" x1="184.73" y1="35.66" x2="205.92" y2="35.66"/><line class="a" x1="185.13" y1="36.76" x2="206.42" y2="36.76"/><line class="a" x1="185.63" y1="38.16" x2="206.92" y2="38.16"/><line class="a" x1="186.03" y1="39.56" x2="207.42" y2="39.56"/><line class="a" x1="186.42" y1="41.06" x2="207.82" y2="41.06"/><line class="a" x1="186.73" y1="42.56" x2="208.13" y2="42.56"/><line class="a" x1="187.13" y1="44.26" x2="208.42" y2="44.26"/><line class="a" x1="187.32" y1="45.96" x2="208.82" y2="45.86"/><line class="a" x1="187.63" y1="47.66" x2="209.03" y2="47.66"/><line class="a" x1="187.73" y1="49.56" x2="209.23" y2="49.56"/><line class="a" x1="187.82" y1="51.36" x2="209.32" y2="51.36"/><line class="a" x1="187.92" y1="53.16" x2="209.32" y2="53.16"/><line class="a" x1="187.92" y1="55.26" x2="209.42" y2="55.16"/><line class="a" x1="187.82" y1="57.16" x2="209.32" y2="57.16"/><line class="a" x1="187.73" y1="59.16" x2="209.23" y2="59.06"/><line class="a" x1="187.63" y1="60.96" x2="209.13" y2="60.96"/><line class="a" x1="187.42" y1="62.76" x2="208.82" y2="62.76"/><line class="a" x1="187.23" y1="64.86" x2="208.63" y2="64.86"/><line class="a" x1="186.82" y1="66.56" x2="208.32" y2="66.56"/><line class="a" x1="186.42" y1="68.56" x2="208.03" y2="68.56"/><line class="a" x1="186.03" y1="70.66" x2="207.53" y2="70.66"/><line class="a" x1="185.63" y1="72.56" x2="207.13" y2="72.56"/><line class="a" x1="185.03" y1="74.66" x2="206.53" y2="74.56"/><line class="a" x1="184.53" y1="76.56" x2="206.03" y2="76.56"/><line class="a" x1="183.82" y1="78.46" x2="205.53" y2="78.46"/><line class="a" x1="183.32" y1="80.06" x2="205.03" y2="80.06"/><line class="a" x1="182.73" y1="81.76" x2="204.32" y2="81.76"/><line class="a" x1="182.03" y1="83.46" x2="203.82" y2="83.46"/><line class="a" x1="181.32" y1="85.16" x2="203.13" y2="85.16"/><line class="a" x1="180.53" y1="86.96" x2="202.42" y2="86.96"/><line class="a" x1="179.73" y1="88.76" x2="201.63" y2="88.76"/><line class="a" x1="178.92" y1="90.36" x2="200.82" y2="90.36"/><line class="a" x1="178.13" y1="91.96" x2="200.03" y2="91.96"/><line class="a" x1="177.23" y1="93.36" x2="199.23" y2="93.36"/><line class="a" x1="176.32" y1="95.06" x2="198.32" y2="94.96"/><line class="a" x1="175.32" y1="96.66" x2="197.32" y2="96.66"/><line class="a" x1="174.53" y1="97.76" x2="196.53" y2="97.76"/><line class="a" x1="173.92" y1="98.76" x2="195.92" y2="98.66"/><line class="a" x1="173.23" y1="99.66" x2="195.23" y2="99.66"/><line class="a" x1="172.63" y1="100.56" x2="194.53" y2="100.56"/><line class="a" x1="171.92" y1="101.46" x2="193.82" y2="101.46"/><line class="a" x1="171.32" y1="102.16" x2="193.23" y2="102.16"/><line class="a" x1="170.73" y1="102.86" x2="192.63" y2="102.86"/><line class="a" x1="170.13" y1="103.56" x2="192.03" y2="103.56"/><line class="a" x1="169.63" y1="104.16" x2="191.42" y2="104.16"/><line class="a" x1="169.03" y1="104.76" x2="190.82" y2="104.76"/><line class="a" x1="168.92" y1="105.36" x2="190.23" y2="105.36"/><line class="a" x1="169.23" y1="105.86" x2="189.63" y2="105.86"/><line class="a" x1="169.73" y1="106.56" x2="188.92" y2="106.56"/><line class="a" x1="170.23" y1="107.16" x2="188.13" y2="107.16"/><line class="a" x1="170.73" y1="107.86" x2="187.32" y2="107.76"/><line class="a" x1="171.32" y1="108.46" x2="186.42" y2="108.46"/><line class="a" x1="171.73" y1="108.86" x2="185.73" y2="108.86"/><line class="a" x1="172.23" y1="109.36" x2="185.03" y2="109.36"/><line class="a" x1="172.82" y1="109.76" x2="184.32" y2="109.76"/><line class="a" x1="173.42" y1="110.16" x2="183.42" y2="110.16"/><line class="a" x1="174.23" y1="110.66" x2="182.42" y2="110.66"/><line class="a" x1="175.23" y1="111.06" x2="181.23" y2="111.06"/><line class="a" x1="176.53" y1="111.46" x2="179.82" y2="111.46"/><line class="a" x1="182.92" y1="31.16" x2="203.82" y2="31.16"/><line class="a" x1="182.92" y1="30.56" x2="203.32" y2="30.56"/><line class="a" x1="183.63" y1="29.96" x2="202.92" y2="29.96"/><line class="a" x1="184.42" y1="29.36" x2="202.42" y2="29.26"/><line class="a" x1="185.23" y1="28.56" x2="201.92" y2="28.56"/><line class="a" x1="186.13" y1="27.96" x2="201.32" y2="27.96"/><line class="a" x1="187.03" y1="27.36" x2="200.82" y2="27.36"/><line class="a" x1="187.92" y1="26.76" x2="200.13" y2="26.76"/><line class="a" x1="189.03" y1="26.16" x2="199.42" y2="26.16"/><line class="a" x1="190.23" y1="25.56" x2="198.63" y2="25.56"/><line class="a" x1="191.23" y1="25.16" x2="197.92" y2="25.16"/><line class="a" x1="192.63" y1="24.76" x2="196.92" y2="24.66"/><line class="a" x1="64.22" y1="80.66" x2="75.13" y2="80.76"/><line class="a" x1="65.33" y1="80.16" x2="74.03" y2="80.16"/><line class="a" x1="66.53" y1="79.56" x2="72.72" y2="79.56"/><line class="a" x1="58.92" y1="88.36" x2="81.53" y2="88.46"/><line class="a" x1="59.53" y1="89.66" x2="82.03" y2="89.66"/><line class="a" x1="60.03" y1="90.96" x2="82.53" y2="90.96"/><line class="a" x1="60.53" y1="92.26" x2="82.92" y2="92.26"/><line class="a" x1="61.03" y1="93.56" x2="83.22" y2="93.56"/><line class="a" x1="61.42" y1="94.96" x2="83.63" y2="94.96"/><line class="a" x1="61.83" y1="96.56" x2="83.92" y2="96.66"/><line class="a" x1="62.22" y1="98.26" x2="84.22" y2="98.36"/><line class="a" x1="62.53" y1="99.86" x2="84.42" y2="99.96"/><line class="a" x1="62.72" y1="101.56" x2="84.53" y2="101.56"/><line class="a" x1="63.03" y1="103.26" x2="84.72" y2="103.26"/><line class="a" x1="63.13" y1="104.86" x2="84.83" y2="104.96"/><line class="a" x1="63.33" y1="106.66" x2="84.92" y2="106.66"/><line class="a" x1="63.33" y1="108.46" x2="84.92" y2="108.46"/><line class="a" x1="63.42" y1="110.36" x2="84.92" y2="110.36"/><line class="a" x1="63.33" y1="112.36" x2="84.83" y2="112.36"/><line class="a" x1="63.33" y1="114.36" x2="84.72" y2="114.36"/><line class="a" x1="63.13" y1="116.36" x2="84.63" y2="116.36"/><line class="a" x1="63.03" y1="118.06" x2="84.53" y2="118.16"/><line class="a" x1="62.83" y1="119.86" x2="84.33" y2="119.86"/><line class="a" x1="62.63" y1="121.86" x2="84.13" y2="121.86"/><line class="a" x1="62.33" y1="123.66" x2="83.92" y2="123.76"/><line class="a" x1="61.92" y1="125.56" x2="83.63" y2="125.66"/><line class="a" x1="61.63" y1="127.66" x2="83.33" y2="127.66"/><line class="a" x1="61.13" y1="129.86" x2="82.83" y2="129.86"/><line class="a" x1="60.72" y1="131.86" x2="82.22" y2="131.86"/><line class="a" x1="60.13" y1="134.16" x2="81.63" y2="134.16"/><line class="a" x1="59.42" y1="136.16" x2="80.92" y2="136.26"/><line class="a" x1="58.72" y1="138.46" x2="80.03" y2="138.56"/><line class="a" x1="58.03" y1="140.76" x2="79.13" y2="140.86"/><line class="a" x1="57.22" y1="142.96" x2="78.13" y2="143.06"/><line class="a" x1="56.22" y1="145.36" x2="76.92" y2="145.36"/><line class="a" x1="55.22" y1="147.76" x2="75.63" y2="147.76"/><line class="a" x1="54.03" y1="150.26" x2="74.13" y2="150.36"/><line class="a" x1="52.92" y1="152.66" x2="72.63" y2="152.66"/><line class="a" x1="51.22" y1="155.46" x2="70.63" y2="155.46"/><line class="a" x1="50.22" y1="156.96" x2="69.42" y2="156.96"/><line class="a" x1="49.33" y1="158.06" x2="68.63" y2="158.06"/><line class="a" x1="48.63" y1="158.96" x2="67.72" y2="159.06"/><line class="a" x1="47.83" y1="159.86" x2="66.92" y2="159.86"/><line class="a" x1="47.13" y1="160.56" x2="66.22" y2="160.56"/><line class="a" x1="46.22" y1="161.16" x2="65.63" y2="161.16"/><line class="a" x1="45.03" y1="161.76" x2="65.03" y2="161.76"/><line class="a" x1="44.63" y1="162.36" x2="64.42" y2="162.36"/><line class="a" x1="45.13" y1="162.96" x2="63.72" y2="162.96"/><line class="a" x1="45.63" y1="163.56" x2="63.03" y2="163.56"/><line class="a" x1="46.22" y1="164.06" x2="62.33" y2="164.16"/><line class="a" x1="46.72" y1="164.56" x2="61.63" y2="164.56"/><line class="a" x1="47.33" y1="165.06" x2="60.92" y2="165.06"/><line class="a" x1="48.03" y1="165.56" x2="60.22" y2="165.56"/><line class="a" x1="48.72" y1="166.06" x2="59.42" y2="166.06"/><line class="a" x1="49.63" y1="166.46" x2="58.42" y2="166.46"/><line class="a" x1="50.83" y1="166.96" x2="57.33" y2="166.96"/><line class="a" x1="52.13" y1="167.36" x2="56.13" y2="167.36"/></svg>