<svg xmlns="http://www.w3.org/2000/svg" width="277.8" height="101.52" viewBox="0 0 277.8 101.52"><defs><style>.a,.b{fill:none;stroke:#fff;stroke-miterlimit:10;}.b{stroke-width:0.25px;}</style></defs><title>portfolio</title><line class="a" x1="8.13" y1="99.8" x2="8.13" y2="99.8"/><path class="b" d="M277.56,56C207.07,17.31,97,29.85,5.32,92.58l-5.2,5.33s0,5.64,6.95,2.55c9.7-6.81,19.8-13.28,30.31-19.28C109.8,39.64,198.08,19.81,277.56,56"/><path class="b" d="M277.69,56a96.75,96.75,0,0,0-9.43-14.41,94.1,94.1,0,0,0-11.12-12c-3.94-3.6-17.59-12.58-13.41-11.83-3.88-2.88-15.19-5-12.57-6.42-6.44-3.64-19.59-3.15-16-5-3.86-1.5-14.81-2.05-12.49-3.5-2.67-1.17-8.63-1.2-12-1.15S178.22,1.69,180.45.2c0,0-22.14,3-19.57.08C159,0.36,141.74,4,143.57,1.63c-2,0-16,6.8-15.53,4.32-1.66.09-8.85,4.88-8.67,3.14-3,.61-13.74,8.66-12.55,5.54-3.61,1.52-11.59,7.7-11.28,5.11-3-.11-9.54,7.93-8.19,4.33-3.8,1.64-11,11.93-10.47,8.56-2.93,1.33-11.81,13-11.53,10C63,43.53,59.29,50.14,56.9,54A53,53,0,0,0,51.65,65.7"/><path class="b" d="M277.66,55.83a28.72,28.72,0,0,1-7.21,6.26c-0.61.46,1.2,0.11,1.2,0.11a43.15,43.15,0,0,1-11.57,6.44c-1.19.48,1.37,0.43,1.37,0.43a36.74,36.74,0,0,1-11.92,4.63c-1.76.27,1.4,0.56,1.4,0.56a35.08,35.08,0,0,1-11.75,3.93c-1.54.28,0.59,0.79,0.59,0.79-4.39,1.88-9.53,2.43-11.61,2.86-1.09.3,0.76,0.89,0.76,0.89a33.22,33.22,0,0,1-11.65,1.92c-1,0,.76.89,0.76,0.89-1.55.5-5.72,0.56-9.25,0.51-1.39,0,.45.83,0.45,0.83-3.88.56-9.19,0.2-11.75,0.25-1.44.11,0.61,1.15,0.61,1.15-4.74.65-10.58,0.22-13.31,0.17-0.81,0,.58,1,0.58,1a109.87,109.87,0,0,1-15.12-.28c-1.2-.11.62,0.93,0.62,0.93a65.45,65.45,0,0,1-16.09-.59c-1.38-.2.12,1.22,0.12,1.22-4.25,0-10.55-1.25-15.27-1.85-0.62-.12.29,1.31,0.29,1.31-3.7-.37-12.36-1.7-16.88-2.65-1.38-.2.33,1.45,0.33,1.45-3.34-.39-14.14-2.82-19-3.52-1.46-.25.07,1.3,0.07,1.3C101.88,86.16,89.51,82,84.59,81c-2.43-.57-0.17,1.51-0.17,1.51-5-1.33-18.79-6.6-28.4-11.34"/><path class="b" d="M36.42,81.67a23,23,0,0,1,9.64,8.55l-6.28-8.6S46.62,88,50,90.29c-1.7-1.88-2.73-2.69-4.74-4.63a22.65,22.65,0,0,1-4.07-5.4,64.39,64.39,0,0,1,6.64,5.93c3.1,3.25,5.23,6.4,6.46,5.84-1.21-.91-2.51-1.65-5.44-5.83a50.48,50.48,0,0,0-6.23-6.85s4.42,3.76,9,7c4.18,3.17,10.74,8,10.12,5.26,0.62,2.76-4.53-2.56-8.8-5.78a87.17,87.17,0,0,1-8.44-7.41,83,83,0,0,0,9.93,6.42c5.32,2.78,12.57,7.22,12.5,4.31,0.08,2.91-6.67-1.82-11.56-5.16-5-3.52-8.63-6.48-8.63-6.48a24.72,24.72,0,0,1,8.59,3.71c4.16,2.81,9.25,4.77,9.43,3.84,0.05,0.72-4.55-1.31-8.74-4.25a39.92,39.92,0,0,0-7.88-4.34,72.48,72.48,0,0,1,9.12,3.78c5.77,2.8,10.54,4.12,11.07,3.38,0,0.45-5.19-1-10.05-4-4.43-2.73-8.44-4.77-8.44-4.77s3.08,1.05,8,2.91,11.46,3.49,16.13,6,6.56,3,8.55,2.76c0,0.22-3.45-.8-7.82-3s-10.33-4.69-14.93-6.71-7.31-3.33-7.31-3.33L90.85,86.36l-37.21-14Z"/><path class="b" d="M36.8,73.27S38.17,70,35.62,63l4.28,7.47-2.31-5.67A23.38,23.38,0,0,1,37,54c0.44,5.53.93,7.3,1.62,9.53,1.3,4.41,3.75,5.56,3.75,5.56a41.48,41.48,0,0,1-2.13-6.6c-0.65-3.12-1.12-8.79-.66-10.83,0.28,2.34.22,6.32,1.75,10.52,1.07,2.79,2.73,6.14,2.73,6.14a61.53,61.53,0,0,1-2.46-9.66c-0.87-5.78,0-18.36,3.73-14.32-3.6-4-3.32,8.12-2.42,12.42,1,4.93,2.72,10.84,2.72,10.84a30.39,30.39,0,0,1-.74-7.43c0.23-3.66.64-9.86,0.64-9.86s0.08,6.36.31,9.82a15.38,15.38,0,0,0,1.67,6A71.13,71.13,0,0,1,47,53.55C47.4,47,49.64,38.15,51.12,39c-1.48-.84-3,8.4-2.91,14.9a78.52,78.52,0,0,0,1,12.14s-0.08-6.36.54-13.36,5.12-14.34,5.69-14.13c-0.66-.26-4.16,7.76-4.5,14.46a59.83,59.83,0,0,0,.83,12.76Z"/><path class="b" d="M5.32,92.58c3.73-1.11,6.3,2.87,2.81,7.22"/><path class="b" d="M64.95,42.77c-2.46,2.52-10.76,14.36-12.71,22.68"/><line class="b" x1="53.21" y1="64.97" x2="53.21" y2="64.97"/><path class="b" d="M65.34,42.88a71.83,71.83,0,0,0-12.83,22.5"/><path class="b" d="M65.69,43.08A69.67,69.67,0,0,0,53.11,65.14"/><path class="b" d="M66.44,42.58c-1.86,2.28-9,10.65-12.91,22.23"/><path class="b" d="M67.32,41.82C65,44.88,57.15,54.33,54.12,64.57"/><path class="b" d="M68,41.27c-2.61,3.81-11.13,14.61-13.45,23.18"/><path class="b" d="M69,40.11C66.8,43.36,56.45,57.61,55.14,64"/><path class="b" d="M69.73,39.39c-1.82,3.22-10.56,14.82-14,24.36"/><path class="b" d="M75.1,36.8"/><path class="b" d="M64.11,59.3"/><path class="b" d="M71,38c-0.62,1.71-11,17.44-14,25.17"/><path class="b" d="M74.21,36.75"/><path class="b" d="M60.3,62"/><path class="b" d="M72.62,36.31c-0.1,2-11.15,18.51-14.09,26.15"/><path class="b" d="M73.47,35.42c-0.1,2-11.09,19-14.08,26.73"/><path class="b" d="M74.27,34.61c-0.15,2.1-11.11,19.45-14,27.09"/><path class="b" d="M74.79,34.1c0.16,2.16-11,19.72-14,27.37"/><path class="b" d="M75.4,33.63c-0.3,3.16-10.86,19.82-13.76,27.6"/><path class="b" d="M75.92,33.12c0.17,2.74-10.6,20-13.54,27.61"/><path class="b" d="M76.39,32.7C76.86,35.72,66,52.77,63,60.41"/><path class="b" d="M77,33.27c-1.6,5.07-10.22,19.5-13.42,27"/><path class="b" d="M77.44,33.07c-1.55,5-9.86,19.47-13.28,27"/><path class="b" d="M78,32.6c-1.55,5-9.73,19.66-13.16,27.14"/><path class="b" d="M78.8,31.88c-1.54,5.56-9.79,20-13.22,27.45"/><path class="b" d="M79.32,31.37C78,36.81,69.55,51.7,66.13,59.18"/><path class="b" d="M80.17,30.47C78.91,36,70.42,51.38,66.91,58.82"/><path class="b" d="M81,29.66C79.57,35.19,71.2,51,67.73,58.59"/><path class="b" d="M81.69,28.8C80.29,34.33,72,50.66,68.51,58.23"/><path class="b" d="M82.44,28.08c-1.26,5.49-9.59,22.26-13,29.74"/><path class="b" d="M83.2,27.36c-1.57,6.23-9.66,22.57-12.86,30.06"/><path class="b" d="M84,26.46C82.56,32.74,74.32,49.57,71,57"/><path class="b" d="M84.8,25.74C83.32,32,75.19,49.25,72,56.75"/><path class="b" d="M85.73,25.11C84.16,31.35,76.19,48.9,73,56.39"/><path class="b" d="M86.52,24.53c-1.48,6.28-9.41,24-12.66,31.55"/><path class="b" d="M87.14,24.65C85.66,30.93,78,48.1,74.82,55.59"/><path class="b" d="M87.85,24.82C86.33,31,79,47.74,75.82,55.24"/><path class="b" d="M88.37,24.31c-1.14,5.67-8.43,23-11.63,30.53"/><path class="b" d="M89.19,23.86c-1.26,6.29-8.3,23.22-11.5,30.72"/><path class="b" d="M89.95,23.13c-1.17,6.34-8.14,23.54-11.43,31"/><path class="b" d="M90.84,22.37c-1.1,6.62-8.16,24-11.45,31.43"/><path class="b" d="M91.63,21.79C90.31,28.39,83.68,46,80.39,53.46"/><path class="b" d="M92.28,21.24C91,27.62,84.68,45.66,81.39,53.1"/><path class="b" d="M93,20.83C91.58,28,85.41,45.38,82.21,52.88"/><path class="b" d="M93.67,20.41C92.28,27.55,86.33,45,83.08,52.56"/><path class="b" d="M94.5,20c-1.31,7.19-7.3,24.71-10.64,32.24"/><path class="b" d="M95.18,19.77C93.87,27,87.93,44.39,84.68,52"/><path class="b" d="M96,20.44c-1.39,7.14-7.16,23.64-10.36,31.13"/><path class="b" d="M96.72,20.3c-1.39,7.14-7.2,23.5-10.45,31.08"/><path class="b" d="M97.5,19.94C96.19,27.12,90.25,43.52,87.05,51"/><path class="b" d="M98.46,19.45C97.07,26.59,91.26,43.17,88,50.75"/><path class="b" d="M99.29,19c-1.39,7.14-7.22,23.95-10.42,31.44"/><path class="b" d="M100.31,18.42c-1.39,7.14-7.23,24.17-10.48,31.75"/><path class="b" d="M101.42,17.67C100,24.81,93.94,42.28,90.69,49.86"/><path class="b" d="M102.25,17.22c-1.31,7.19-7.49,24.83-10.74,32.41"/><path class="b" d="M103.26,16.65c-1.39,7.14-7.73,25.27-11,32.71"/><path class="b" d="M104.14,16.11c-1.39,7.14-7.88,25.53-11.17,33"/><path class="b" d="M104.88,15.61C103.58,22.8,97,41.36,93.7,48.8"/><path class="b" d="M105.85,15.12c-1.39,7.14-8,25.92-11.19,33.42"/><path class="b" d="M106.63,14.76c-1.39,7.14-8,26.06-11.29,33.59"/><path class="b" d="M107,15.45c-1.31,7.19-7.5,25.05-10.7,32.55"/><path class="b" d="M108.13,15.15c-1.39,7.14-7.77,25.13-11.11,32.66"/><path class="b" d="M108.91,14.78C107.52,21.92,101.23,40,98,47.54"/><path class="b" d="M110,14.26c-1.39,7.14-7.88,25.53-11.17,33"/><path class="b" d="M111,13.68c-1.39,7.14-8.16,25.83-11.37,33.32"/><path class="b" d="M112,13.11c-1.39,7.14-8.36,26.17-11.56,33.67"/><path class="b" d="M112.88,12.43c-1.39,7.14-8.51,26.43-11.76,34"/><path class="b" d="M113.94,11.77c-1.39,7.14-8.75,26.87-12,34.45"/><path class="b" d="M115.23,11.12C113.93,18.31,106,38.5,102.76,46"/><path class="b" d="M116.25,10.54c-1.39,7.14-9.61,27.77-12.81,35.26"/><path class="b" d="M117.3,10.11c-1.39,7.14-9.89,28.07-13.23,35.6"/><path class="b" d="M118,9.61c-1.31,7.19-10,28.33-13.24,35.82"/><path class="b" d="M119,9.25c-1.39,7.14-10.36,28.49-13.56,36"/><path class="b" d="M119.84,9.47c-1.39,7.14-10.47,28.08-13.81,35.61"/><path class="b" d="M120.88,9.26C119.49,16.4,110,37.45,106.8,44.95"/><path class="b" d="M121.84,8.77c-1.39,7.14-11.2,28.36-14.45,35.94"/><path class="b" d="M122.95,8.24C121.55,15.38,111.27,37,108,44.61"/><path class="b" d="M124,7.67c-1.39,7.14-12,29.17-15.26,36.75"/><path class="b" d="M124.93,7.18c-1.31,7.19-12.15,29.43-15.49,37"/><path class="b" d="M126,6.74C124.58,13.88,113.49,36.56,110.2,44"/><path class="b" d="M126.94,6.25c-1.39,7.14-12.81,30-16.06,37.56"/><path class="b" d="M127.81,5.94c-1.31,7.19-13,30.1-16.2,37.6"/><path class="b" d="M128.77,6.48c-2.22,7.59-13.18,29.42-16.52,37"/><path class="b" d="M129.54,6.34c-2.17,7.5-13.36,29.32-16.61,36.9"/><path class="b" d="M130.3,6.2c-2.12,7.41-13.44,29.27-16.7,36.86"/><path class="b" d="M131.12,6c-2.32,7.76-13.63,29.4-16.88,37"/><path class="b" d="M131.94,5.75c-2.26,7.45-13.63,29.4-16.88,37"/><path class="b" d="M132.94,5.39C131.17,12,118.73,35.61,115.88,42.5"/><path class="b" d="M134.3,5c-1.85,6.53-14.85,30.55-17.66,37.34"/><path class="b" d="M135.32,4.44c-1.77,6.58-15.22,30.8-18.08,37.68"/><path class="b" d="M136.68,4.06c-1.77,6.58-15.68,31-18.54,37.88"/><path class="b" d="M138.19,3.42c-1.72,6.5-16.56,31.53-19.37,38.33"/><path class="b" d="M139.84,2.74c-1.72,6.5-17.39,32-20.2,38.78"/><path class="b" d="M141.11,2.32c-1.85,6.53-17.62,32.2-20.48,39.08"/><path class="b" d="M142.8,1.77c-1.72,6.5-18.08,32.4-20.94,39.28"/><path class="b" d="M143.67,2.27C141.9,8.85,125.76,34,122.9,40.84"/><path class="b" d="M144.64,2.58c-1.77,6.58-17.89,31.24-20.75,38.13"/><path class="b" d="M145.72,2.5c-1.72,6.5-17.84,31.15-20.65,38"/><path class="b" d="M146.75,2.51C145,9,128.88,33.31,126,40.19"/><path class="b" d="M147.79,2.3c-1.72,6.5-17.73,30.76-20.59,37.64"/><path class="b" d="M149,2.18c-1.72,6.5-18,30.75-20.76,37.54"/><path class="b" d="M150.32,1.89C148.6,8.38,132,32.66,129.15,39.55"/><path class="b" d="M151.62,1.82c-1.72,6.5-18.49,30.67-21.34,37.56"/><path class="b" d="M153,1.58C151.3,8.07,134.44,32.2,131.64,39"/><path class="b" d="M154.42,1.34c-1.72,6.5-18.66,30.58-21.47,37.37"/><path class="b" d="M155.87,1c-1.72,6.5-18.8,30.61-21.65,37.5"/><path class="b" d="M157.72,0.79c-1.72,6.5-19.43,30.72-22.29,37.6"/><path class="b" d="M158.81,0.48C157.09,7,139.46,31.25,136.66,38"/><path class="b" d="M161.36,1.24c-1.72,6.5-19.55,29.5-22.4,36.39"/><path class="b" d="M162.61,1.48c-1.72,6.5-19.62,29.23-22.43,36"/><path class="b" d="M164.3,1.52c-1.72,6.5-20.06,29-22.87,35.78"/><path class="b" d="M165.83,1.47c-1.72,6.5-20.18,28.8-23,35.68"/><path class="b" d="M167.31,1.5C165.1,7.83,146.78,30.1,143.92,37"/><path class="b" d="M170.46,1.21c-1.72,6.5-21.21,28.79-24.28,35.44"/><path class="b" d="M172.25,1.08c-1.72,6.5-22,28.48-24.81,35.37"/><path class="b" d="M175.49,0.84c-1.72,6.5-23.12,28.51-26,35.4"/><path class="b" d="M177.11,0.61c-1.72,6.5-23.59,28.94-26.7,35.45"/><path class="b" d="M180.12,0.58c-1.72,6.5-24.86,28.34-27.72,35.22"/><path class="b" d="M181.87,1.34c-1.72,6.5-25.72,27.62-28.58,34.5"/><path class="b" d="M184,1.49c-1.72,6.5-26.82,27.34-29.63,34.14"/><path class="b" d="M186.11,1.56C184,7.81,158.65,29,155.46,35.47"/><path class="b" d="M188.17,1.57c-2.2,6.34-28,27.46-31.5,33.77"/><path class="b" d="M190.32,1.64c-2.24,6.2-28.92,27.19-32.43,33.59"/><path class="b" d="M192,1.54c-1.87,6-29.28,27.21-33,33.52"/><path class="b" d="M193.76,1.63C192.23,7.2,163.89,29.09,160.18,35"/><path class="b" d="M195.6,1.64c-1.79,6.22-29.9,27.09-34.2,33.28"/><path class="b" d="M197.56,1.83c-1.72,6.5-30.9,26.42-34.36,33"/><path class="b" d="M199.43,2c-1.72,6.5-31.75,27.31-34.94,32.75"/><path class="b" d="M201.16,2.37c-1.72,6.5-32.23,27.15-35.45,32.23"/><path class="b" d="M202.32,3.37c-2.82,7-31.54,25.94-35.17,31.12"/><path class="b" d="M205.45,4.33c-1.72,6.5-32,25-35.33,30"/><path class="b" d="M207,4.64c-1.56,6-32.07,24.83-35.27,29.69"/><path class="b" d="M208.82,4.86c-2,6.12-32.74,24.8-36,29.38"/><path class="b" d="M210.46,5.21c-2,5.76-33,24.52-36.53,28.86"/><path class="b" d="M211.53,5.36c-2.94,7.64-32.89,24.25-36.21,28.7"/><path class="b" d="M213.08,5.66C210.3,12.82,180.29,29.74,176.85,34"/><path class="b" d="M214.28,6c-1.44,7.23-32.91,23.67-36.17,28"/><path class="b" d="M215.29,7.25C213.67,13.57,183,29.65,179.63,34"/><path class="b" d="M217.1,7.7c-1.65,6-32.41,21.77-35.95,26.2"/><path class="b" d="M218.79,8c-1.61,6.1-32,21.52-36.16,26"/><path class="b" d="M220.34,8.27C218.73,14.37,188.17,29.83,184,34"/><path class="b" d="M221.8,8.52c-1.56,6-31.95,21.57-36.36,25.51"/><path class="b" d="M223.67,8.89c-1.65,6-32.52,21.36-36.66,25.23"/><path class="b" d="M225.84,9.31c-1.61,6.1-32.51,21.14-37,24.67"/><path class="b" d="M227.6,9.85c-1.65,6-32.63,21-37.23,24.21"/><path class="b" d="M229.37,10.38c-1.61,6.1-32.25,20.48-37.21,23.77"/><path class="b" d="M230.81,11.08c-2.14,6-31.56,20.07-37.09,23.15"/><path class="b" d="M231.67,12.61c-2.26,5.62-30.46,18.74-36.17,21.72"/><path class="b" d="M233.2,13.36c-3,6-29.84,18.05-36,21.14"/><path class="b" d="M235.05,13.94c-3.06,5.62-30.17,17.41-35.89,20.61"/><path class="b" d="M236.82,14.48c-3,5.31-30.26,17.36-35.9,20"/><path class="b" d="M238.93,15.21c-3,5.45-30.27,16.78-36,19.53"/><path class="b" d="M240.63,16.06c-3,5.31-29.79,16.13-35.48,18.88"/><path class="b" d="M242.47,16.87c-2.91,5.36-29.4,15.43-35.09,18.19"/><path class="b" d="M243.28,18.48c-3,5.45-28.08,14.11-33.77,16.87"/><path class="b" d="M244.74,19.76c-2.91,5.36-27,13.14-32.6,15.81"/><path class="b" d="M246.58,21.38c-3,5.45-26.66,11.81-32.27,14.61"/><path class="b" d="M248.53,22.82c-3.05,5.4-26.25,10.67-31.85,13.47"/><path class="b" d="M250.29,24.17c-2.91,5.36-25.79,9.66-31.4,12.46"/><path class="b" d="M252.1,25.65c-3,5.31-25.11,8.66-30.72,11.47"/><path class="b" d="M253.83,26.85c-3,5.31-24.8,7.7-30.4,10.5"/><path class="b" d="M255.6,28.2c-3,5.31-24.48,6.73-30.17,9.48"/><path class="b" d="M257.23,29.58c-3,5.31-23.71,5.78-29.41,8.54"/><path class="b" d="M258.55,30.9c-2.91,5.36-22.18,5.5-28.74,7.76"/><path class="b" d="M260.22,32.42c-3,5.31-21.85,5.34-27.93,6.73"/><path class="b" d="M261.58,33.87c-3.05,4.59-20.06,4.4-27.07,5.83"/><path class="b" d="M263.07,35.29c-3.48,4.12-19.48,3.58-26,4.95"/><path class="b" d="M264.08,36.55c-3.54,4.43-19,3.15-24.76,4.38"/><path class="b" d="M265.22,38c-3.84,4.15-18.16,2.26-23.91,3.49"/><path class="b" d="M266.4,39.36c-4.44,3.58-17.1,1.59-22.85,2.82"/><path class="b" d="M267.55,40.58c-4.21,3.59-16.21.83-22,2"/><path class="b" d="M268.56,41.84c-4.22,3.82-15.5.2-21.2,1.34"/><path class="b" d="M269.44,43.14c-3.77,3.61-14.33-.06-20.14.68"/><path class="b" d="M270.43,44.62c-4.27,2.87-14.29.08-19.29-.22"/><path class="b" d="M271.61,46.21c-5,2.7-12.23.09-17.21-.65"/><path class="b" d="M272.82,47.92c-5.34,1.92-9.61-.26-14.55-0.87"/><path class="b" d="M273.89,49.68c-5.59.75-7.51-.34-12.51-1.44"/><path class="b" d="M274.68,50.93c-4.81.38-6.74-.48-10-1.27"/><path class="b" d="M275.47,52.18a20.52,20.52,0,0,1-7.56-1.06"/><path class="b" d="M276.37,53.84a18.67,18.67,0,0,1-4.74-1"/><path class="b" d="M276.86,54.8a10.19,10.19,0,0,1-2.57-.53"/><path class="b" d="M203.81,4c-1.94,6.48-31.55,25.13-35,30.42"/><path class="b" d="M178.69,0.46C177,7,154.08,29.17,151.27,36"/><path class="b" d="M173.83,0.93c-1.72,6.5-22.54,28.5-25.4,35.38"/><path class="b" d="M169.1,1.37c-1.72,6.5-21,28.66-24.06,35.45"/><path class="b" d="M160.43,0.25c-1.72,6.5-19.75,30.88-22.56,37.68"/><path class="b" d="M71.72,37.3c-0.23,1.82-11.12,17.84-14,25.62"/><path class="b" d="M77.14,35.42"/><path class="b" d="M63.15,60.59"/><path class="b" d="M70.11,38.92C69.52,41,60.39,53.07,56.28,63.6"/><path class="b" d="M77.81,35.46"/><path class="b" d="M66.9,58"/><path class="b" d="M70.31,57.06"/><path class="b" d="M73.58,56.16"/><path class="b" d="M94.34,83.85c-3.91-4-10.3-21.21-12.28-24.4"/><path class="b" d="M93.2,83.44c-3.88-3.91-9.83-20.61-11.91-23.85"/><path class="b" d="M91.92,83.06C88,79,82.58,63.2,80.6,60"/><path class="b" d="M90.69,82.59c-3.88-3.91-8.75-19.07-10.82-22.31"/><path class="b" d="M89.53,82.4c-3.88-3.91-8.32-18.6-10.31-21.79"/><path class="b" d="M88.39,82c-3.88-3.91-7.91-17.91-9.9-21.1"/><path class="b" d="M87.37,81.75c-3.88-3.91-7.62-17.4-9.61-20.59"/><path class="b" d="M86.18,81.42c-4-4-6.94-16.79-8.93-20"/><path class="b" d="M84.94,81.18c-3.91-4-6.29-16.31-8.28-19.5"/><path class="b" d="M83.92,81C80,77,78,65.2,75.93,62"/><path class="b" d="M83.77,82c-4.64-3.77-6.64-16.5-8.66-19.83"/><path class="b" d="M83.58,82.37c-4.94-3.25-7.13-16.44-9.21-19.68"/><path class="b" d="M82.39,82c-4.61-3.64-6.67-15.83-8.7-19.16"/><path class="b" d="M81.29,81.53C77,78,75.3,66.32,73.23,63.08"/><path class="b" d="M80.1,81.2c-4-3.74-5.53-14.61-7.6-17.85"/><path class="b" d="M79.27,80.85C75.48,77.79,73.79,67,71.81,63.77"/><path class="b" d="M78.12,80.43C74.09,77,73.2,67.2,71.21,64"/><path class="b" d="M77,80c-4.28-3.8-4.47-12.41-6.5-15.73"/><path class="b" d="M75.7,79.64c-3.51-2.33-3.93-11.75-6-15"/><path class="b" d="M74.43,79c-3.23-3.43-3.25-10.91-5.33-14.15"/><path class="b" d="M73.38,78.67c-2.55-2.59-2.84-10.22-4.91-13.46"/><path class="b" d="M72.46,78.26c-2.49-2.9-2.6-9.63-4.59-12.82"/><path class="b" d="M71.75,78.09c-2-1.58-2.54-9.13-4.52-12.32"/><path class="b" d="M70.92,77.74c-1.76-2.37-2.4-8.36-4.47-11.6"/><path class="b" d="M70.35,77.53c-1.61-1.83-2.69-9.67-4.73-10.94"/><path class="b" d="M69.86,77.37c-1.61-1.83-2.93-9.24-4.84-10.55"/><path class="b" d="M69.34,77.08c-1.61-1.83-2.86-9-5.14-9.8"/><path class="b" d="M68.68,76.82c-1.61-1.83-3.07-8.4-5.35-9.23"/><path class="b" d="M68.2,76.66c-1.61-1.83-3.27-7.82-5.65-8.71"/><path class="b" d="M67.5,76.27C65.89,74.44,64.24,69,62,68.19"/><path class="b" d="M66.84,76c-1.61-1.83-3.24-6.66-5.53-7.49"/><path class="b" d="M66.18,75.75c-1.61-1.83-3.13-6.25-5.56-6.82"/><path class="b" d="M65.61,75.54C64,73.71,62.41,69.83,60,69.26"/><path class="b" d="M64.86,75.24c-1.61-1.83-3.1-5.08-5.48-5.74"/><path class="b" d="M63.94,74.83c-1.45-2.31-2.69-4.39-5.21-5"/><path class="b" d="M63.29,74.57c-1.41-2.18-2.72-3.72-5.11-4.38"/><path class="b" d="M62.54,74.27a7.86,7.86,0,0,0-5.09-3.8"/><path class="b" d="M61.84,73.87a8.33,8.33,0,0,0-4.9-3.12"/><path class="b" d="M61.14,73.7A14,14,0,0,0,56.44,71"/><path class="b" d="M95.49,84C92.31,82.36,84.82,62.28,82.7,59.13"/><path class="b" d="M96.46,84.36c-4.68-3.1-10.79-23-13.39-25.49"/><path class="b" d="M97.47,84.82c-5.35-3.94-10.74-23.88-13.85-26.09"/><path class="b" d="M98.44,85.14c-6-4.78-10.72-24.32-14.28-26.56"/><path class="b" d="M99.32,85.41C91.69,77.76,88.59,60.5,84.75,58.34"/><path class="b" d="M100.25,85.59c-7.42-8.21-11.11-25.46-14.9-27.49"/><path class="b" d="M101.36,85.87C94.84,79.31,89.7,59.75,86,57.77"/><path class="b" d="M102.33,86.19c-6.41-7-12.08-26.59-15.74-28.65"/><path class="b" d="M103.47,86.6c-6.59-6-12.59-27.1-16.34-29.22"/><path class="b" d="M103.64,85.89c-6.63-6.16-12.26-26.68-16-28.8"/><path class="b" d="M104,85.42C97.48,79.31,92,59,88.23,56.86"/><path class="b" d="M105.18,85.61c-7.62-6-12.6-26.88-16.35-29"/><path class="b" d="M106,85.83c-8-6.14-12.72-27.29-16.46-29.41"/><path class="b" d="M106.81,86C99.2,80.74,93.9,58.22,90.15,56.1"/><path class="b" d="M107.52,86.14c-8.27-6.51-12.63-28-16.79-30"/><path class="b" d="M108.37,86.27C99,77.87,95.64,58.17,91.29,55.71"/><path class="b" d="M109.07,86.44c-9.58-8.86-13.31-28.89-17.05-31"/><path class="b" d="M110.19,86.5c-9.67-8.91-13.27-27.94-17.49-31.25"/><path class="b" d="M111.07,86.76c-9.65-8.33-14.33-29.12-18-31.63"/><path class="b" d="M112.31,87C102,78.42,97.48,57.37,93.84,54.86"/><path class="b" d="M113.33,87.24c-10.53-8.6-15.17-30.06-18.81-32.57"/><path class="b" d="M114.57,87.48C104.24,79.34,98.7,57,95.3,54.3"/><path class="b" d="M115.68,87.76C105.4,79.53,99.38,56.84,95.9,54.07"/><path class="b" d="M116.83,88c-10.33-8.14-16.72-31.39-20.12-34.11"/><path class="b" d="M118.25,88.29C108,80.07,100.8,56.37,97.31,53.6"/><path class="b" d="M119.71,88.55C109.34,80.27,101.53,56.1,98,53.32"/><path class="b" d="M120.92,88.65c-10.37-8.27-18.61-32.92-22.06-35.56"/><path class="b" d="M122.69,89C112,81,103,55.55,99.59,52.82"/><path class="b" d="M122.49,87.7c-10.33-8.14-18.68-32.38-22.22-35.07"/><path class="b" d="M123.74,87.72C113.41,79.58,104.67,55,101.27,52.28"/><path class="b" d="M125.16,88.06c-10.37-8.27-19.75-33.33-23.2-36"/><path class="b" d="M126.58,88.18c-10.33-8.14-20.45-33.73-23.94-36.5"/><path class="b" d="M127.83,88.42C117.45,80.15,107,54.14,103.51,51.36"/><path class="b" d="M129.29,88.68C119,80.54,108,53.87,104.55,51.15"/><path class="b" d="M130.44,88.87c-10.33-8.14-21.58-35.4-25-38"/><path class="b" d="M131.77,89.16c-10.37-8.27-22-35.87-25.53-38.55"/><path class="b" d="M133,89.4c-10.37-8.27-22.34-36.29-25.87-39"/><path class="b" d="M134.08,89.55c-10.37-8.27-22.62-36.79-26-39.52"/><path class="b" d="M135.11,89.55c-10.33-8.14-22.87-37.17-26.32-39.8"/><path class="b" d="M136,89.82c-10.37-8.27-22.85-37.61-26.3-40.25"/><path class="b" d="M137.06,90c-10.37-8.27-23-37.93-26.5-40.71"/><path class="b" d="M138.26,90.07C127.66,82,115,51.63,111.52,49"/><path class="b" d="M139.24,90.17c-10.37-8.27-23.33-38.8-26.81-41.57"/><path class="b" d="M139.38,89.32c-10.33-8.14-22.51-38.22-26-41"/><path class="b" d="M140.11,89c-10.51-8.24-22.15-38.25-25.55-41"/><path class="b" d="M141.09,89.14C130.8,80.92,119,50.45,115.52,47.81"/><path class="b" d="M142.29,89.25C131.92,81,119.92,50.18,116.43,47.41"/><path class="b" d="M143.48,89.58c-10.28-8.22-22.57-39.52-26.06-42.3"/><path class="b" d="M145.09,89.79C134.71,81.52,122,49.75,118.51,47"/><path class="b" d="M146.51,89.91c-10.33-8.14-23.6-40.56-27-43.29"/><path class="b" d="M147.84,90.2c-10.28-8.22-23.8-41-27.28-43.79"/><path class="b" d="M149.13,90.36c-10.37-8.27-24.22-41.49-27.62-44.21"/><path class="b" d="M150.2,90.5c-10.37-8.27-24.11-41.89-27.65-44.57"/><path class="b" d="M151.58,90.7c-10.37-8.27-24.67-42.32-28.07-45"/><path class="b" d="M152.92,90.77C142.55,82.5,128,48.08,124.55,45.45"/><path class="b" d="M153.95,90.78c-10.28-8.22-25.18-42.84-28.58-45.56"/><path class="b" d="M154.18,89.76c-10.37-8.27-24.55-42.13-27.95-44.86"/><path class="b" d="M155.08,89.58c-10.37-8.27-24.36-42.26-27.81-44.89"/><path class="b" d="M156.41,89.88c-10.37-8.27-25-42.51-28.23-45.36"/><path class="b" d="M157.84,90c-10.33-8.14-25.31-43-28.71-45.75"/><path class="b" d="M159.18,90.06c-10.33-8.14-25.61-43.3-29.09-46.08"/><path class="b" d="M160.24,90.2C150,82,134.39,46.53,130.85,43.84"/><path class="b" d="M161.5,90.22c-10.33-8.14-26.25-43.79-29.74-46.56"/><path class="b" d="M162.56,90.37c-10.37-8.27-26.64-44.12-30-46.84"/><path class="b" d="M163.51,90.33c-10.28-8.22-26.81-44.22-30.3-47"/><path class="b" d="M164.31,90.32C154,82.1,137.37,45.92,133.89,43.15"/><path class="b" d="M165.52,90.43c-10.37-8.27-27.65-44.57-31-47.3"/><path class="b" d="M166.41,90.47C156.13,82.25,138.64,45.72,135.24,43"/><path class="b" d="M167.35,90.43c-10.37-8.27-27.81-44.89-31.3-47.67"/><path class="b" d="M168,90.24C157.66,82,140.32,45.17,136.79,42.49"/><path class="b" d="M168.93,90.29C158.59,82.15,141,45.21,137.51,42.43"/><path class="b" d="M169.92,90.16c-10.33-8.14-28.2-45.23-31.73-47.91"/><path class="b" d="M169.83,89.3c-10.33-8.14-27.34-44.51-30.74-47.24"/><path class="b" d="M170.77,89.26C160.4,81,143.26,44.65,139.86,41.93"/><path class="b" d="M171.84,89.41C161.5,81.27,144,44.6,140.58,41.87"/><path class="b" d="M172.73,89.45c-10.33-8.14-28-45-31.38-47.72"/><path class="b" d="M173.49,89.53c-10.37-8.27-28.06-45.27-31.46-48"/><path class="b" d="M174.43,89.49c-10.37-8.27-28-45.49-31.58-48.18"/><path class="b" d="M175.41,89.59c-10.28-8.22-28.26-45.72-31.66-48.45"/><path class="b" d="M176.26,89.72c-10.37-8.27-28.3-45.86-31.7-48.58"/><path class="b" d="M177.28,89.73c-10.37-8.27-28.34-46-31.82-48.77"/><path class="b" d="M178.45,89.7c-10.28-8.22-28.68-46.19-32.08-48.92"/><path class="b" d="M179.48,89.7c-10.37-8.27-28.9-46.43-32.34-49.07"/><path class="b" d="M180.6,89.76c-10.37-8.27-29.12-46.44-32.6-49.21"/><path class="b" d="M181.54,89.72C171.17,81.45,152.3,43.1,148.9,40.37"/><path class="b" d="M182.48,89.68C172.11,81.4,153.2,42.92,149.8,40.19"/><path class="b" d="M183.2,89.63c-10.37-8.27-29.1-46.89-32.63-49.57"/><path class="b" d="M183.92,89.57c-10.28-8.22-29.1-46.89-32.58-49.66"/><path class="b" d="M185,89.63c-10.37-8.27-29.27-47-32.67-49.71"/><path class="b" d="M185,88.46c-10.33-8.14-28.42-46-31.82-48.77"/><path class="b" d="M185.81,88.46c-10.37-8.27-28.32-46.22-31.81-49"/><path class="b" d="M186.62,88.46c-10.33-8.14-28.27-46.31-31.81-49"/><path class="b" d="M187.33,88.63C177,80.49,159,42.18,155.53,39.41"/><path class="b" d="M188,88.57C177.71,80.44,159.7,42,156.3,39.27"/><path class="b" d="M188.94,88.62c-10.37-8.27-28.39-46.71-31.79-49.44"/><path class="b" d="M189.88,88.58c-10.37-8.27-28.56-46.81-32-49.54"/><path class="b" d="M190.77,88.62C180.44,80.48,161.9,41.75,158.42,39"/><path class="b" d="M191.49,88.57c-10.37-8.27-28.91-47-32.45-49.7"/><path class="b" d="M192.52,88.58c-10.37-8.27-29.31-47.12-32.76-49.76"/><path class="b" d="M193.33,88.57C183,80.35,163.93,41.4,160.54,38.68"/><path class="b" d="M194,88.61c-10.37-8.27-29.35-47.26-32.75-50"/><path class="b" d="M194.72,88.55c-10.28-8.22-29.26-47.21-32.66-49.93"/><path class="b" d="M195.66,88.51c-10.37-8.27-29.52-47.35-33-50"/><path class="b" d="M196.33,88.55C186,80.27,166.67,41.23,163.19,38.46"/><path class="b" d="M197.15,88.32c-10.33-8.14-29.79-47.28-33.33-50"/><path class="b" d="M197.73,88.3c-10.56-8.15-29.71-47.23-33.19-50"/><path class="b" d="M197.25,87.12C186.88,78.84,168.75,41,165.35,38.3"/><path class="b" d="M198.2,87.07c-10.37-8.27-28.46-46.18-31.95-49"/><path class="b" d="M198.87,87.11c-10.37-8.27-28.5-46.32-32-49"/><path class="b" d="M199.72,87c-10.33-8.14-28.5-46.32-32-49"/><path class="b" d="M200.53,87c-10.33-8.14-28.59-46.37-32-49.09"/><path class="b" d="M201.37,87.15C191,79,172.7,40.73,169.21,38"/><path class="b" d="M202.32,87.1C192,78.88,173.61,40.55,170.21,37.83"/><path class="b" d="M203.34,87.11C193,79,174.46,40.46,171,37.69"/><path class="b" d="M204.37,87.12C194,78.85,175.18,40.41,171.69,37.63"/><path class="b" d="M205.27,87.16C194.93,79,176.21,40.42,172.67,37.73"/><path class="b" d="M206.07,87.16c-10.37-8.27-29-46.84-32.54-49.52"/><path class="b" d="M207.15,87.08c-10.37-8.27-29.37-46.81-32.77-49.53"/><path class="b" d="M208,87c-10.37-8.27-29.15-46.8-32.63-49.57"/><path class="b" d="M208.59,87c-10.37-8.27-28.79-46.82-32.27-49.6"/><path class="b" d="M208.36,86.16C198.27,77.81,180.52,40.1,177,37.41"/><path class="b" d="M209.27,86c-10.33-8.14-27.71-45.87-31.2-48.65"/><path class="b" d="M210.43,85.95c-10.33-8.14-27.53-46-31-48.64"/><path class="b" d="M211.46,86c-10.33-8.14-27.53-46-31-48.64"/><path class="b" d="M212.27,86C202,77.73,185,40,181.48,37.19"/><path class="b" d="M213.16,86c-10.37-8.27-27.31-46-30.79-48.76"/><path class="b" d="M213.83,86c-10.37-8.27-27.08-46-30.57-48.75"/><path class="b" d="M214.6,85.89c-10.37-8.27-26.9-46.1-30.35-48.74"/><path class="b" d="M215.18,85.88c-10.28-8.22-26.5-46-29.95-48.63"/><path class="b" d="M215.77,85.86c-10.33-8.14-26.19-45.93-29.59-48.66"/><path class="b" d="M216.49,85.81c-10.37-8.27-25.83-46-29.23-48.68"/><path class="b" d="M217.12,85.71c-10.37-8.27-25.3-45.89-28.83-48.57"/><path class="b" d="M217.13,84.68c-10.37-8.27-24.27-44.85-27.76-47.62"/><path class="b" d="M218,84.72c-10.28-8.22-24.27-44.85-27.67-47.57"/><path class="b" d="M219,84.68c-10.37-8.27-24.27-44.85-27.67-47.57"/><path class="b" d="M219.82,84.59c-10.28-8.22-24.19-44.8-27.59-47.52"/><path class="b" d="M220.9,84.51c-10.37-8.27-24.24-44.71-27.68-47.35"/><path class="b" d="M221.84,84.47c-10.28-8.22-24-44.57-27.42-47.2"/><path class="b" d="M222.69,84.38C212.41,76.15,199,40,195.58,37.24"/><path class="b" d="M223.6,84.2C213.31,76,200.1,40,196.56,37.33"/><path class="b" d="M224.5,84c-10.33-8.14-23.29-43.95-26.78-46.72"/><path class="b" d="M225.54,83.81c-10.33-8.14-23.16-43.76-26.7-46.45"/><path class="b" d="M226.36,83.58C216.08,75.36,203.5,40.1,200,37.33"/><path class="b" d="M227.13,83.44c-10.28-8.22-22.43-43.23-26-45.92"/><path class="b" d="M227.95,83.21c-10.37-8.27-22.44-43-25.84-45.73"/><path class="b" d="M228,82.1c-10.37-8.27-21.38-41.84-24.83-44.47"/><path class="b" d="M228.77,82c-10.33-8.14-21.22-41.51-24.71-44.29"/><path class="b" d="M229.86,81.65c-10.37-8.27-21.23-41.29-24.77-44"/><path class="b" d="M230.85,81.52c-10.33-8.14-21.38-41-24.78-43.76"/><path class="b" d="M231.62,81.38c-10.37-8.27-21.25-40.84-24.74-43.62"/><path class="b" d="M232.48,81.29C222.11,73,211.44,40.68,208,38"/><path class="b" d="M233.3,81.07c-10.37-8.27-20.61-40.36-24-43.09"/><path class="b" d="M234.06,80.93c-10.37-8.27-20.39-40.13-23.84-42.77"/><path class="b" d="M234.75,80.74c-10.28-8.22-20.1-39.85-23.49-42.57"/><path class="b" d="M235.56,80.51c-10.28-8.22-19.71-39.51-23.24-42.2"/><path class="b" d="M236.47,80.33c-10.37-8.27-19.37-39.09-22.86-41.87"/><path class="b" d="M237.25,80C226.91,71.83,218,41.2,214.59,38.56"/><path class="b" d="M238,79.83c-10.37-8.27-18.74-38.39-22.22-41.16"/><path class="b" d="M238.8,79.47c-10.28-8.22-18.54-37.93-21.93-40.66"/><path class="b" d="M238.7,78.61C228.37,70.47,221.41,41.73,218,39.09"/><path class="b" d="M239.44,78.33c-10.37-8.27-17-36.51-20.44-39.24"/><path class="b" d="M240.29,78.24C229.92,70,223.46,42,220.06,39.24"/><path class="b" d="M241.06,78.1C230.73,70,224.48,42.2,221,39.42"/><path class="b" d="M241.74,77.91c-10.37-8.27-16.37-35.67-19.77-38.4"/><path class="b" d="M242.51,77.77c-10.37-8.27-16.12-35.3-19.52-38"/><path class="b" d="M243.38,77.46C233,69.19,227.51,42.53,224.06,39.89"/><path class="b" d="M244.06,77.27C233.72,69.13,228.39,42.8,224.9,40"/><path class="b" d="M245,77c-10.37-8.27-15.47-34-19-36.79"/><path class="b" d="M245.83,76.78c-10.37-8.27-15.13-33.59-18.62-36.37"/><path class="b" d="M246.88,76.34c-10.37-8.27-15.2-33.06-18.6-35.78"/><path class="b" d="M247.88,76c-10.28-8.22-15.1-32.43-18.5-35.15"/><path class="b" d="M248.9,75.41c-10.33-8.14-14.82-31.7-18.36-34.38"/><path class="b" d="M250,75c-10.37-8.27-14.86-31-18.26-33.75"/><path class="b" d="M250.46,73.66C240.13,65.52,236.2,44.23,232.8,41.5"/><path class="b" d="M251.83,73.28c-10.28-8.22-14.56-28.91-18-31.54"/><path class="b" d="M253.14,73c-10.37-8.27-14.77-28.33-18.22-31"/><path class="b" d="M254.74,72.39c-10.28-8.22-15-27.45-18.44-30.18"/><path class="b" d="M255.88,72c-10.33-8.14-14.76-26.72-18.25-29.5"/><path class="b" d="M256.93,71.57c-10.28-8.22-14.35-26-17.8-28.67"/><path class="b" d="M258,71c-10.37-8.27-13.95-25.11-17.43-27.89"/><path class="b" d="M259.27,70.48c-10.33-8.14-13.6-24.11-17-26.84"/><path class="b" d="M260.2,69.85C249.86,61.71,247.4,46.77,243.91,44"/><path class="b" d="M261,68.46c-10.28-8.22-11.82-21.15-15.22-23.88"/><path class="b" d="M262.63,67.78c-10.28-8.22-12-20.09-15.36-22.81"/><path class="b" d="M264.37,66.93C254.09,58.7,252.48,48.14,249,45.37"/><path class="b" d="M265.9,66.07c-10.33-8.14-12.14-17.54-15.59-20.18"/><path class="b" d="M267.6,65.08C257.27,56.94,255.47,49.15,252,46.29"/><path class="b" d="M269.22,64c-10.33-8.14-11.54-14.33-15-17.11"/><path class="b" d="M270.47,63.25C260.19,55,259.4,50.33,256,47.61"/><path class="b" d="M271.12,61.9C260.75,53.62,261.42,51,258,48.29"/><path class="b" d="M272.33,61c-10.33-8.14-9.2-9.33-12.68-12.11"/><path class="b" d="M273.36,60.18c-10.37-8.27-8.46-8-11.86-10.72"/><path class="b" d="M274.39,59.38c-10.37-8.27-7.11-6.32-10.65-9"/><path class="b" d="M275.29,58.39c-3.52-2.91-4.93-4.28-8.33-7"/><path class="b" d="M276.27,57.46c-2.93-2.34-4.58-3.28-6.42-4.89"/><path class="b" d="M276.79,56.95C274.7,55,274,55,272.3,53.72"/><path class="b" d="M123.52,87.71"/><path class="b" d="M93.3,55"/><path class="b" d="M124.45,87.89"/><path class="b" d="M93.84,54.86"/><path class="b" d="M125.21,88"/><path class="b" d="M94.44,54.62"/><path class="b" d="M95,54.47"/><path class="b" d="M9.84,95.37c-0.64,4.58-4.3,6.18-8.07,5.55"/><path class="b" d="M9.66,94.46c-0.5,5.35-4.42,6.81-8.28,6.12"/><path class="b" d="M9.37,94c-0.69,5.7-4.61,6.93-8.47,6.24"/><path class="b" d="M9.08,93.45C8.62,99.15,4.6,100.56.74,99.87"/><path class="b" d="M8.79,93.16c-0.59,5.52-4.43,7-8.24,6.25"/><path class="b" d="M8.23,92.73c-0.17,5.19-4.07,7-7.92,6.09"/><path class="b" d="M7.74,92.57C7.38,97.88,3.91,99.14.19,98.41"/><path class="b" d="M7.26,92.41C6.83,97.23,3.4,98.62.08,98"/><path class="b" d="M6.72,92.34A5.24,5.24,0,0,1,.46,97.53"/><path class="b" d="M6.14,92.36c-0.3,3.16-2.85,5-5.11,4.58"/><path class="b" d="M5.46,92.55C5.11,95,3.37,96.65,1.73,96.3"/><path class="b" d="M4.52,93.39a1.86,1.86,0,0,1-2.07,2"/></svg>